<svg width="51" height="216" viewBox="0 0 51 216" fill="none" xmlns="http://www.w3.org/2000/svg">
<circle cx="4.1" cy="4.1" r="4.1" fill="#272244" fill-opacity="0.67"/>
<circle cx="4.1" cy="15.0333" r="4.1" fill="#272244" fill-opacity="0.67"/>
<circle cx="4.1" cy="25.9666" r="4.1" fill="#272244" fill-opacity="0.67"/>
<circle cx="4.1" cy="36.9" r="4.1" fill="#272244" fill-opacity="0.67"/>
<circle cx="4.1" cy="47.8333" r="4.1" fill="#272244" fill-opacity="0.67"/>
<circle cx="4.1" cy="58.7667" r="4.1" fill="#272244" fill-opacity="0.67"/>
<circle cx="4.1" cy="69.7" r="4.1" fill="#272244" fill-opacity="0.67"/>
<circle cx="4.1" cy="80.6333" r="4.1" fill="#272244" fill-opacity="0.67"/>
<circle cx="4.1" cy="91.5667" r="4.1" fill="#272244" fill-opacity="0.67"/>
<circle cx="4.1" cy="102.5" r="4.1" fill="#272244" fill-opacity="0.67"/>
<circle cx="4.1" cy="113.433" r="4.1" fill="#272244" fill-opacity="0.67"/>
<circle cx="4.1" cy="124.367" r="4.1" fill="#272244" fill-opacity="0.67"/>
<circle cx="4.1" cy="135.3" r="4.1" fill="#272244" fill-opacity="0.67"/>
<circle cx="4.1" cy="146.233" r="4.1" fill="#272244" fill-opacity="0.67"/>
<circle cx="4.1" cy="157.167" r="4.1" fill="#272244" fill-opacity="0.67"/>
<circle cx="4.1" cy="168.1" r="4.1" fill="#272244" fill-opacity="0.67"/>
<circle cx="4.1" cy="179.033" r="4.1" fill="#272244" fill-opacity="0.67"/>
<circle cx="4.1" cy="189.967" r="4.1" fill="#272244" fill-opacity="0.67"/>
<circle cx="4.1" cy="200.9" r="4.1" fill="#272244" fill-opacity="0.67"/>
<circle cx="4.1" cy="211.833" r="4.1" fill="#272244" fill-opacity="0.67"/>
<circle cx="46.1" cy="4.1" r="4.1" fill="#272244" fill-opacity="0.67"/>
<circle cx="46.1" cy="15.0333" r="4.1" fill="#272244" fill-opacity="0.67"/>
<circle cx="46.1" cy="25.9666" r="4.1" fill="#272244" fill-opacity="0.67"/>
<circle cx="46.1" cy="36.9" r="4.1" fill="#272244" fill-opacity="0.67"/>
<circle cx="46.1" cy="47.8333" r="4.1" fill="#272244" fill-opacity="0.67"/>
<circle cx="46.1" cy="58.7667" r="4.1" fill="#272244" fill-opacity="0.67"/>
<circle cx="46.1" cy="69.7" r="4.1" fill="#272244" fill-opacity="0.67"/>
<circle cx="46.1" cy="80.6333" r="4.1" fill="#272244" fill-opacity="0.67"/>
<circle cx="46.1" cy="91.5667" r="4.1" fill="#272244" fill-opacity="0.67"/>
<circle cx="46.1" cy="102.5" r="4.1" fill="#272244" fill-opacity="0.67"/>
<circle cx="46.1" cy="113.433" r="4.1" fill="#272244" fill-opacity="0.67"/>
<circle cx="46.1" cy="124.367" r="4.1" fill="#272244" fill-opacity="0.67"/>
<circle cx="46.1" cy="135.3" r="4.1" fill="#272244" fill-opacity="0.67"/>
<circle cx="46.1" cy="146.233" r="4.1" fill="#272244" fill-opacity="0.67"/>
<circle cx="46.1" cy="157.167" r="4.1" fill="#272244" fill-opacity="0.67"/>
<circle cx="46.1" cy="168.1" r="4.1" fill="#272244" fill-opacity="0.67"/>
<circle cx="46.1" cy="179.033" r="4.1" fill="#272244" fill-opacity="0.67"/>
<circle cx="46.1" cy="189.967" r="4.1" fill="#272244" fill-opacity="0.67"/>
<circle cx="46.1" cy="200.9" r="4.1" fill="#272244" fill-opacity="0.67"/>
<circle cx="46.1" cy="211.833" r="4.1" fill="#272244" fill-opacity="0.67"/>
<circle cx="18.1" cy="4.1" r="4.1" fill="#272244" fill-opacity="0.67"/>
<circle cx="18.1" cy="15.0333" r="4.1" fill="#272244" fill-opacity="0.67"/>
<circle cx="18.1" cy="25.9666" r="4.1" fill="#272244" fill-opacity="0.67"/>
<circle cx="18.1" cy="36.9" r="4.1" fill="#272244" fill-opacity="0.67"/>
<circle cx="18.1" cy="47.8333" r="4.1" fill="#272244" fill-opacity="0.67"/>
<circle cx="18.1" cy="58.7667" r="4.1" fill="#272244" fill-opacity="0.67"/>
<circle cx="18.1" cy="69.7" r="4.1" fill="#272244" fill-opacity="0.67"/>
<circle cx="18.1" cy="80.6333" r="4.1" fill="#272244" fill-opacity="0.67"/>
<circle cx="18.1" cy="91.5667" r="4.1" fill="#272244" fill-opacity="0.67"/>
<circle cx="18.1" cy="102.5" r="4.1" fill="#272244" fill-opacity="0.67"/>
<circle cx="18.1" cy="113.433" r="4.1" fill="#272244" fill-opacity="0.67"/>
<circle cx="18.1" cy="124.367" r="4.1" fill="#272244" fill-opacity="0.67"/>
<circle cx="18.1" cy="135.3" r="4.1" fill="#272244" fill-opacity="0.67"/>
<circle cx="18.1" cy="146.233" r="4.1" fill="#272244" fill-opacity="0.67"/>
<circle cx="18.1" cy="157.167" r="4.1" fill="#272244" fill-opacity="0.67"/>
<circle cx="18.1" cy="168.1" r="4.1" fill="#272244" fill-opacity="0.67"/>
<circle cx="18.1" cy="179.033" r="4.1" fill="#272244" fill-opacity="0.67"/>
<circle cx="18.1" cy="189.967" r="4.1" fill="#272244" fill-opacity="0.67"/>
<circle cx="18.1" cy="200.9" r="4.1" fill="#272244" fill-opacity="0.67"/>
<circle cx="18.1" cy="211.833" r="4.1" fill="#272244" fill-opacity="0.67"/>
<circle cx="32.1" cy="4.1" r="4.1" fill="#272244" fill-opacity="0.67"/>
<circle cx="32.1" cy="15.0333" r="4.1" fill="#272244" fill-opacity="0.67"/>
<circle cx="32.1" cy="25.9666" r="4.1" fill="#272244" fill-opacity="0.67"/>
<circle cx="32.1" cy="36.9" r="4.1" fill="#272244" fill-opacity="0.67"/>
<circle cx="32.1" cy="47.8333" r="4.1" fill="#272244" fill-opacity="0.67"/>
<circle cx="32.1" cy="58.7667" r="4.1" fill="#272244" fill-opacity="0.67"/>
<circle cx="32.1" cy="69.7" r="4.1" fill="#272244" fill-opacity="0.67"/>
<circle cx="32.1" cy="80.6333" r="4.1" fill="#272244" fill-opacity="0.67"/>
<circle cx="32.1" cy="91.5667" r="4.1" fill="#272244" fill-opacity="0.67"/>
<circle cx="32.1" cy="102.5" r="4.1" fill="#272244" fill-opacity="0.67"/>
<circle cx="32.1" cy="113.433" r="4.1" fill="#272244" fill-opacity="0.67"/>
<circle cx="32.1" cy="124.367" r="4.1" fill="#272244" fill-opacity="0.67"/>
<circle cx="32.1" cy="135.3" r="4.1" fill="#272244" fill-opacity="0.67"/>
<circle cx="32.1" cy="146.233" r="4.1" fill="#272244" fill-opacity="0.67"/>
<circle cx="32.1" cy="157.167" r="4.1" fill="#272244" fill-opacity="0.67"/>
<circle cx="32.1" cy="168.1" r="4.1" fill="#272244" fill-opacity="0.67"/>
<circle cx="32.1" cy="179.033" r="4.1" fill="#272244" fill-opacity="0.67"/>
<circle cx="32.1" cy="189.967" r="4.1" fill="#272244" fill-opacity="0.67"/>
<circle cx="32.1" cy="200.9" r="4.1" fill="#272244" fill-opacity="0.67"/>
<circle cx="32.1" cy="211.833" r="4.1" fill="#272244" fill-opacity="0.67"/>
</svg>
