<svg width="216" height="46" viewBox="0 0 216 46" fill="none" xmlns="http://www.w3.org/2000/svg">
<circle cx="211.833" cy="-0.9" r="4.1" transform="rotate(90 211.833 -0.9)" fill="#272244" fill-opacity="0.67"/>
<circle cx="200.9" cy="-0.9" r="4.1" transform="rotate(90 200.9 -0.9)" fill="#272244" fill-opacity="0.67"/>
<circle cx="189.967" cy="-0.9" r="4.1" transform="rotate(90 189.967 -0.9)" fill="#272244" fill-opacity="0.67"/>
<circle cx="179.033" cy="-0.9" r="4.1" transform="rotate(90 179.033 -0.9)" fill="#272244" fill-opacity="0.67"/>
<circle cx="168.1" cy="-0.9" r="4.1" transform="rotate(90 168.1 -0.9)" fill="#272244" fill-opacity="0.67"/>
<circle cx="157.167" cy="-0.9" r="4.1" transform="rotate(90 157.167 -0.9)" fill="#272244" fill-opacity="0.67"/>
<circle cx="146.233" cy="-0.9" r="4.1" transform="rotate(90 146.233 -0.9)" fill="#272244" fill-opacity="0.67"/>
<circle cx="135.3" cy="-0.9" r="4.1" transform="rotate(90 135.3 -0.9)" fill="#272244" fill-opacity="0.67"/>
<circle cx="124.367" cy="-0.9" r="4.1" transform="rotate(90 124.367 -0.9)" fill="#272244" fill-opacity="0.67"/>
<circle cx="113.433" cy="-0.9" r="4.1" transform="rotate(90 113.433 -0.9)" fill="#272244" fill-opacity="0.67"/>
<circle cx="102.5" cy="-0.9" r="4.1" transform="rotate(90 102.5 -0.9)" fill="#272244" fill-opacity="0.67"/>
<circle cx="91.5667" cy="-0.9" r="4.1" transform="rotate(90 91.5667 -0.9)" fill="#272244" fill-opacity="0.67"/>
<circle cx="80.6333" cy="-0.9" r="4.1" transform="rotate(90 80.6333 -0.9)" fill="#272244" fill-opacity="0.67"/>
<circle cx="69.7" cy="-0.9" r="4.1" transform="rotate(90 69.7 -0.9)" fill="#272244" fill-opacity="0.67"/>
<circle cx="58.7667" cy="-0.9" r="4.1" transform="rotate(90 58.7667 -0.9)" fill="#272244" fill-opacity="0.67"/>
<circle cx="47.8334" cy="-0.9" r="4.1" transform="rotate(90 47.8334 -0.9)" fill="#272244" fill-opacity="0.67"/>
<circle cx="36.9" cy="-0.9" r="4.1" transform="rotate(90 36.9 -0.9)" fill="#272244" fill-opacity="0.67"/>
<circle cx="25.9667" cy="-0.9" r="4.1" transform="rotate(90 25.9667 -0.9)" fill="#272244" fill-opacity="0.67"/>
<circle cx="15.0334" cy="-0.9" r="4.1" transform="rotate(90 15.0334 -0.9)" fill="#272244" fill-opacity="0.67"/>
<circle cx="4.10001" cy="-0.9" r="4.1" transform="rotate(90 4.10001 -0.9)" fill="#272244" fill-opacity="0.67"/>
<circle cx="211.833" cy="41.1" r="4.1" transform="rotate(90 211.833 41.1)" fill="#272244" fill-opacity="0.67"/>
<circle cx="200.9" cy="41.1" r="4.1" transform="rotate(90 200.9 41.1)" fill="#272244" fill-opacity="0.67"/>
<circle cx="189.967" cy="41.1" r="4.1" transform="rotate(90 189.967 41.1)" fill="#272244" fill-opacity="0.67"/>
<circle cx="179.033" cy="41.1" r="4.1" transform="rotate(90 179.033 41.1)" fill="#272244" fill-opacity="0.67"/>
<circle cx="168.1" cy="41.1" r="4.1" transform="rotate(90 168.1 41.1)" fill="#272244" fill-opacity="0.67"/>
<circle cx="157.167" cy="41.1" r="4.1" transform="rotate(90 157.167 41.1)" fill="#272244" fill-opacity="0.67"/>
<circle cx="146.233" cy="41.1" r="4.1" transform="rotate(90 146.233 41.1)" fill="#272244" fill-opacity="0.67"/>
<circle cx="135.3" cy="41.1" r="4.1" transform="rotate(90 135.3 41.1)" fill="#272244" fill-opacity="0.67"/>
<circle cx="124.367" cy="41.1" r="4.1" transform="rotate(90 124.367 41.1)" fill="#272244" fill-opacity="0.67"/>
<circle cx="113.433" cy="41.1" r="4.1" transform="rotate(90 113.433 41.1)" fill="#272244" fill-opacity="0.67"/>
<circle cx="102.5" cy="41.1" r="4.1" transform="rotate(90 102.5 41.1)" fill="#272244" fill-opacity="0.67"/>
<circle cx="91.5667" cy="41.1" r="4.1" transform="rotate(90 91.5667 41.1)" fill="#272244" fill-opacity="0.67"/>
<circle cx="80.6333" cy="41.1" r="4.1" transform="rotate(90 80.6333 41.1)" fill="#272244" fill-opacity="0.67"/>
<circle cx="69.7" cy="41.1" r="4.1" transform="rotate(90 69.7 41.1)" fill="#272244" fill-opacity="0.67"/>
<circle cx="58.7667" cy="41.1" r="4.1" transform="rotate(90 58.7667 41.1)" fill="#272244" fill-opacity="0.67"/>
<circle cx="47.8334" cy="41.1" r="4.1" transform="rotate(90 47.8334 41.1)" fill="#272244" fill-opacity="0.67"/>
<circle cx="36.9" cy="41.1" r="4.1" transform="rotate(90 36.9 41.1)" fill="#272244" fill-opacity="0.67"/>
<circle cx="25.9667" cy="41.1" r="4.1" transform="rotate(90 25.9667 41.1)" fill="#272244" fill-opacity="0.67"/>
<circle cx="15.0334" cy="41.1" r="4.1" transform="rotate(90 15.0334 41.1)" fill="#272244" fill-opacity="0.67"/>
<circle cx="4.10001" cy="41.1" r="4.1" transform="rotate(90 4.10001 41.1)" fill="#272244" fill-opacity="0.67"/>
<circle cx="211.833" cy="13.1" r="4.1" transform="rotate(90 211.833 13.1)" fill="#272244" fill-opacity="0.67"/>
<circle cx="200.9" cy="13.1" r="4.1" transform="rotate(90 200.9 13.1)" fill="#272244" fill-opacity="0.67"/>
<circle cx="189.967" cy="13.1" r="4.1" transform="rotate(90 189.967 13.1)" fill="#272244" fill-opacity="0.67"/>
<circle cx="179.033" cy="13.1" r="4.1" transform="rotate(90 179.033 13.1)" fill="#272244" fill-opacity="0.67"/>
<circle cx="168.1" cy="13.1" r="4.1" transform="rotate(90 168.1 13.1)" fill="#272244" fill-opacity="0.67"/>
<circle cx="157.167" cy="13.1" r="4.1" transform="rotate(90 157.167 13.1)" fill="#272244" fill-opacity="0.67"/>
<circle cx="146.233" cy="13.1" r="4.1" transform="rotate(90 146.233 13.1)" fill="#272244" fill-opacity="0.67"/>
<circle cx="135.3" cy="13.1" r="4.1" transform="rotate(90 135.3 13.1)" fill="#272244" fill-opacity="0.67"/>
<circle cx="124.367" cy="13.1" r="4.1" transform="rotate(90 124.367 13.1)" fill="#272244" fill-opacity="0.67"/>
<circle cx="113.433" cy="13.1" r="4.1" transform="rotate(90 113.433 13.1)" fill="#272244" fill-opacity="0.67"/>
<circle cx="102.5" cy="13.1" r="4.1" transform="rotate(90 102.5 13.1)" fill="#272244" fill-opacity="0.67"/>
<circle cx="91.5667" cy="13.1" r="4.1" transform="rotate(90 91.5667 13.1)" fill="#272244" fill-opacity="0.67"/>
<circle cx="80.6333" cy="13.1" r="4.1" transform="rotate(90 80.6333 13.1)" fill="#272244" fill-opacity="0.67"/>
<circle cx="69.7" cy="13.1" r="4.1" transform="rotate(90 69.7 13.1)" fill="#272244" fill-opacity="0.67"/>
<circle cx="58.7667" cy="13.1" r="4.1" transform="rotate(90 58.7667 13.1)" fill="#272244" fill-opacity="0.67"/>
<circle cx="47.8334" cy="13.1" r="4.1" transform="rotate(90 47.8334 13.1)" fill="#272244" fill-opacity="0.67"/>
<circle cx="36.9" cy="13.1" r="4.1" transform="rotate(90 36.9 13.1)" fill="#272244" fill-opacity="0.67"/>
<circle cx="25.9667" cy="13.1" r="4.1" transform="rotate(90 25.9667 13.1)" fill="#272244" fill-opacity="0.67"/>
<circle cx="15.0334" cy="13.1" r="4.1" transform="rotate(90 15.0334 13.1)" fill="#272244" fill-opacity="0.67"/>
<circle cx="4.10001" cy="13.1" r="4.1" transform="rotate(90 4.10001 13.1)" fill="#272244" fill-opacity="0.67"/>
<circle cx="211.833" cy="27.1" r="4.1" transform="rotate(90 211.833 27.1)" fill="#272244" fill-opacity="0.67"/>
<circle cx="200.9" cy="27.1" r="4.1" transform="rotate(90 200.9 27.1)" fill="#272244" fill-opacity="0.67"/>
<circle cx="189.967" cy="27.1" r="4.1" transform="rotate(90 189.967 27.1)" fill="#272244" fill-opacity="0.67"/>
<circle cx="179.033" cy="27.1" r="4.1" transform="rotate(90 179.033 27.1)" fill="#272244" fill-opacity="0.67"/>
<circle cx="168.1" cy="27.1" r="4.1" transform="rotate(90 168.1 27.1)" fill="#272244" fill-opacity="0.67"/>
<circle cx="157.167" cy="27.1" r="4.1" transform="rotate(90 157.167 27.1)" fill="#272244" fill-opacity="0.67"/>
<circle cx="146.233" cy="27.1" r="4.1" transform="rotate(90 146.233 27.1)" fill="#272244" fill-opacity="0.67"/>
<circle cx="135.3" cy="27.1" r="4.1" transform="rotate(90 135.3 27.1)" fill="#272244" fill-opacity="0.67"/>
<circle cx="124.367" cy="27.1" r="4.1" transform="rotate(90 124.367 27.1)" fill="#272244" fill-opacity="0.67"/>
<circle cx="113.433" cy="27.1" r="4.1" transform="rotate(90 113.433 27.1)" fill="#272244" fill-opacity="0.67"/>
<circle cx="102.5" cy="27.1" r="4.1" transform="rotate(90 102.5 27.1)" fill="#272244" fill-opacity="0.67"/>
<circle cx="91.5667" cy="27.1" r="4.1" transform="rotate(90 91.5667 27.1)" fill="#272244" fill-opacity="0.67"/>
<circle cx="80.6333" cy="27.1" r="4.1" transform="rotate(90 80.6333 27.1)" fill="#272244" fill-opacity="0.67"/>
<circle cx="69.7" cy="27.1" r="4.1" transform="rotate(90 69.7 27.1)" fill="#272244" fill-opacity="0.67"/>
<circle cx="58.7667" cy="27.1" r="4.1" transform="rotate(90 58.7667 27.1)" fill="#272244" fill-opacity="0.67"/>
<circle cx="47.8334" cy="27.1" r="4.1" transform="rotate(90 47.8334 27.1)" fill="#272244" fill-opacity="0.67"/>
<circle cx="36.9" cy="27.1" r="4.1" transform="rotate(90 36.9 27.1)" fill="#272244" fill-opacity="0.67"/>
<circle cx="25.9667" cy="27.1" r="4.1" transform="rotate(90 25.9667 27.1)" fill="#272244" fill-opacity="0.67"/>
<circle cx="15.0334" cy="27.1" r="4.1" transform="rotate(90 15.0334 27.1)" fill="#272244" fill-opacity="0.67"/>
<circle cx="4.10001" cy="27.1" r="4.1" transform="rotate(90 4.10001 27.1)" fill="#272244" fill-opacity="0.67"/>
</svg>
