<svg width="41" height="74" viewBox="0 0 41 74" fill="none" xmlns="http://www.w3.org/2000/svg">
<circle cx="4.1" cy="4.1" r="4.1" fill="#221D3B"/>
<circle cx="4.1" cy="15.0333" r="4.1" fill="#221D3B"/>
<circle cx="4.1" cy="25.9666" r="4.1" fill="#221D3B"/>
<circle cx="4.1" cy="36.9" r="4.1" fill="#221D3B"/>
<circle cx="4.1" cy="47.8333" r="4.1" fill="#221D3B"/>
<circle cx="4.1" cy="58.7667" r="4.1" fill="#221D3B"/>
<circle cx="4.1" cy="69.7" r="4.1" fill="#221D3B"/>
<circle cx="15.0333" cy="4.1" r="4.1" fill="#221D3B"/>
<circle cx="15.0333" cy="15.0333" r="4.1" fill="#221D3B"/>
<circle cx="15.0333" cy="25.9666" r="4.1" fill="#221D3B"/>
<circle cx="15.0333" cy="36.9" r="4.1" fill="#221D3B"/>
<circle cx="15.0333" cy="47.8333" r="4.1" fill="#221D3B"/>
<circle cx="15.0333" cy="58.7667" r="4.1" fill="#221D3B"/>
<circle cx="15.0333" cy="69.7" r="4.1" fill="#221D3B"/>
<circle cx="25.9667" cy="4.1" r="4.1" fill="#221D3B"/>
<circle cx="25.9667" cy="15.0333" r="4.1" fill="#221D3B"/>
<circle cx="25.9667" cy="25.9666" r="4.1" fill="#221D3B"/>
<circle cx="25.9667" cy="36.9" r="4.1" fill="#221D3B"/>
<circle cx="25.9667" cy="47.8333" r="4.1" fill="#221D3B"/>
<circle cx="25.9667" cy="58.7667" r="4.1" fill="#221D3B"/>
<circle cx="25.9667" cy="69.7" r="4.1" fill="#221D3B"/>
<circle cx="36.9" cy="4.1" r="4.1" fill="#221D3B"/>
<circle cx="36.9" cy="15.0333" r="4.1" fill="#221D3B"/>
<circle cx="36.9" cy="25.9666" r="4.1" fill="#221D3B"/>
<circle cx="36.9" cy="36.9" r="4.1" fill="#221D3B"/>
<circle cx="36.9" cy="47.8333" r="4.1" fill="#221D3B"/>
<circle cx="36.9" cy="58.7667" r="4.1" fill="#221D3B"/>
<circle cx="36.9" cy="69.7" r="4.1" fill="#221D3B"/>
</svg>
