<svg width="156" height="50" viewBox="0 0 156 50" fill="none" xmlns="http://www.w3.org/2000/svg">
<circle cx="157.167" cy="4.1" r="4.1" transform="rotate(90 157.167 4.1)" fill="#272244" fill-opacity="0.67"/>
<circle cx="146.233" cy="4.1" r="4.1" transform="rotate(90 146.233 4.1)" fill="#272244" fill-opacity="0.67"/>
<circle cx="135.3" cy="4.1" r="4.1" transform="rotate(90 135.3 4.1)" fill="#272244" fill-opacity="0.67"/>
<circle cx="124.367" cy="4.1" r="4.1" transform="rotate(90 124.367 4.1)" fill="#272244" fill-opacity="0.67"/>
<circle cx="113.433" cy="4.1" r="4.1" transform="rotate(90 113.433 4.1)" fill="#272244" fill-opacity="0.67"/>
<circle cx="102.5" cy="4.1" r="4.1" transform="rotate(90 102.5 4.1)" fill="#272244" fill-opacity="0.67"/>
<circle cx="91.5667" cy="4.1" r="4.1" transform="rotate(90 91.5667 4.1)" fill="#272244" fill-opacity="0.67"/>
<circle cx="80.6334" cy="4.1" r="4.1" transform="rotate(90 80.6334 4.1)" fill="#272244" fill-opacity="0.67"/>
<circle cx="69.7001" cy="4.1" r="4.1" transform="rotate(90 69.7001 4.1)" fill="#272244" fill-opacity="0.67"/>
<circle cx="58.7667" cy="4.1" r="4.1" transform="rotate(90 58.7667 4.1)" fill="#272244" fill-opacity="0.67"/>
<circle cx="47.8334" cy="4.1" r="4.1" transform="rotate(90 47.8334 4.1)" fill="#272244" fill-opacity="0.67"/>
<circle cx="36.9" cy="4.1" r="4.1" transform="rotate(90 36.9 4.1)" fill="#272244" fill-opacity="0.67"/>
<circle cx="25.9667" cy="4.1" r="4.1" transform="rotate(90 25.9667 4.1)" fill="#272244" fill-opacity="0.67"/>
<circle cx="15.0333" cy="4.1" r="4.1" transform="rotate(90 15.0333 4.1)" fill="#272244" fill-opacity="0.67"/>
<circle cx="4.09995" cy="4.1" r="4.1" transform="rotate(90 4.09995 4.1)" fill="#272244" fill-opacity="0.67"/>
<circle cx="157.167" cy="46.1" r="4.1" transform="rotate(90 157.167 46.1)" fill="#272244" fill-opacity="0.67"/>
<circle cx="146.233" cy="46.1" r="4.1" transform="rotate(90 146.233 46.1)" fill="#272244" fill-opacity="0.67"/>
<circle cx="135.3" cy="46.1" r="4.1" transform="rotate(90 135.3 46.1)" fill="#272244" fill-opacity="0.67"/>
<circle cx="124.367" cy="46.1" r="4.1" transform="rotate(90 124.367 46.1)" fill="#272244" fill-opacity="0.67"/>
<circle cx="113.433" cy="46.1" r="4.1" transform="rotate(90 113.433 46.1)" fill="#272244" fill-opacity="0.67"/>
<circle cx="102.5" cy="46.1" r="4.1" transform="rotate(90 102.5 46.1)" fill="#272244" fill-opacity="0.67"/>
<circle cx="91.5667" cy="46.1" r="4.1" transform="rotate(90 91.5667 46.1)" fill="#272244" fill-opacity="0.67"/>
<circle cx="80.6334" cy="46.1" r="4.1" transform="rotate(90 80.6334 46.1)" fill="#272244" fill-opacity="0.67"/>
<circle cx="69.7001" cy="46.1" r="4.1" transform="rotate(90 69.7001 46.1)" fill="#272244" fill-opacity="0.67"/>
<circle cx="58.7667" cy="46.1" r="4.1" transform="rotate(90 58.7667 46.1)" fill="#272244" fill-opacity="0.67"/>
<circle cx="47.8334" cy="46.1" r="4.1" transform="rotate(90 47.8334 46.1)" fill="#272244" fill-opacity="0.67"/>
<circle cx="36.9" cy="46.1" r="4.1" transform="rotate(90 36.9 46.1)" fill="#272244" fill-opacity="0.67"/>
<circle cx="25.9667" cy="46.1" r="4.1" transform="rotate(90 25.9667 46.1)" fill="#272244" fill-opacity="0.67"/>
<circle cx="15.0333" cy="46.1" r="4.1" transform="rotate(90 15.0333 46.1)" fill="#272244" fill-opacity="0.67"/>
<circle cx="4.09995" cy="46.1" r="4.1" transform="rotate(90 4.09995 46.1)" fill="#272244" fill-opacity="0.67"/>
<circle cx="157.167" cy="18.1" r="4.1" transform="rotate(90 157.167 18.1)" fill="#272244" fill-opacity="0.67"/>
<circle cx="146.233" cy="18.1" r="4.1" transform="rotate(90 146.233 18.1)" fill="#272244" fill-opacity="0.67"/>
<circle cx="135.3" cy="18.1" r="4.1" transform="rotate(90 135.3 18.1)" fill="#272244" fill-opacity="0.67"/>
<circle cx="124.367" cy="18.1" r="4.1" transform="rotate(90 124.367 18.1)" fill="#272244" fill-opacity="0.67"/>
<circle cx="113.433" cy="18.1" r="4.1" transform="rotate(90 113.433 18.1)" fill="#272244" fill-opacity="0.67"/>
<circle cx="102.5" cy="18.1" r="4.1" transform="rotate(90 102.5 18.1)" fill="#272244" fill-opacity="0.67"/>
<circle cx="91.5667" cy="18.1" r="4.1" transform="rotate(90 91.5667 18.1)" fill="#272244" fill-opacity="0.67"/>
<circle cx="80.6334" cy="18.1" r="4.1" transform="rotate(90 80.6334 18.1)" fill="#272244" fill-opacity="0.67"/>
<circle cx="69.7001" cy="18.1" r="4.1" transform="rotate(90 69.7001 18.1)" fill="#272244" fill-opacity="0.67"/>
<circle cx="58.7667" cy="18.1" r="4.1" transform="rotate(90 58.7667 18.1)" fill="#272244" fill-opacity="0.67"/>
<circle cx="47.8334" cy="18.1" r="4.1" transform="rotate(90 47.8334 18.1)" fill="#272244" fill-opacity="0.67"/>
<circle cx="36.9" cy="18.1" r="4.1" transform="rotate(90 36.9 18.1)" fill="#272244" fill-opacity="0.67"/>
<circle cx="25.9667" cy="18.1" r="4.1" transform="rotate(90 25.9667 18.1)" fill="#272244" fill-opacity="0.67"/>
<circle cx="15.0333" cy="18.1" r="4.1" transform="rotate(90 15.0333 18.1)" fill="#272244" fill-opacity="0.67"/>
<circle cx="4.09995" cy="18.1" r="4.1" transform="rotate(90 4.09995 18.1)" fill="#272244" fill-opacity="0.67"/>
<circle cx="157.167" cy="32.1" r="4.1" transform="rotate(90 157.167 32.1)" fill="#272244" fill-opacity="0.67"/>
<circle cx="146.233" cy="32.1" r="4.1" transform="rotate(90 146.233 32.1)" fill="#272244" fill-opacity="0.67"/>
<circle cx="135.3" cy="32.1" r="4.1" transform="rotate(90 135.3 32.1)" fill="#272244" fill-opacity="0.67"/>
<circle cx="124.367" cy="32.1" r="4.1" transform="rotate(90 124.367 32.1)" fill="#272244" fill-opacity="0.67"/>
<circle cx="113.433" cy="32.1" r="4.1" transform="rotate(90 113.433 32.1)" fill="#272244" fill-opacity="0.67"/>
<circle cx="102.5" cy="32.1" r="4.1" transform="rotate(90 102.5 32.1)" fill="#272244" fill-opacity="0.67"/>
<circle cx="91.5667" cy="32.1" r="4.1" transform="rotate(90 91.5667 32.1)" fill="#272244" fill-opacity="0.67"/>
<circle cx="80.6334" cy="32.1" r="4.1" transform="rotate(90 80.6334 32.1)" fill="#272244" fill-opacity="0.67"/>
<circle cx="69.7001" cy="32.1" r="4.1" transform="rotate(90 69.7001 32.1)" fill="#272244" fill-opacity="0.67"/>
<circle cx="58.7667" cy="32.1" r="4.1" transform="rotate(90 58.7667 32.1)" fill="#272244" fill-opacity="0.67"/>
<circle cx="47.8334" cy="32.1" r="4.1" transform="rotate(90 47.8334 32.1)" fill="#272244" fill-opacity="0.67"/>
<circle cx="36.9" cy="32.1" r="4.1" transform="rotate(90 36.9 32.1)" fill="#272244" fill-opacity="0.67"/>
<circle cx="25.9667" cy="32.1" r="4.1" transform="rotate(90 25.9667 32.1)" fill="#272244" fill-opacity="0.67"/>
<circle cx="15.0333" cy="32.1" r="4.1" transform="rotate(90 15.0333 32.1)" fill="#272244" fill-opacity="0.67"/>
<circle cx="4.09995" cy="32.1" r="4.1" transform="rotate(90 4.09995 32.1)" fill="#272244" fill-opacity="0.67"/>
</svg>
