<svg width="67" height="78" viewBox="0 0 67 78" fill="none" xmlns="http://www.w3.org/2000/svg">
<path d="M54.116 77.203H13.4067C11.0731 77.2007 8.79768 76.4748 6.89384 75.1253C4.99 73.7758 3.55148 71.8692 2.77645 69.668C2.00142 67.4669 1.92804 65.0795 2.5664 62.8349C3.20475 60.5903 4.52345 58.5989 6.3408 57.1351L56.7974 16.5775C57.9194 15.7112 58.7401 14.5134 59.1427 13.1541C59.5453 11.7949 59.5095 10.3434 59.0403 9.00568C58.5782 7.67259 57.7099 6.51792 56.5573 5.70417C55.4047 4.89041 54.026 4.45854 52.6152 4.46931H12.9008C10.6645 4.46931 8.51986 5.35767 6.93857 6.93896C5.35728 8.52026 4.46892 10.6649 4.46892 12.9012C4.46892 15.1375 5.35728 17.2822 6.93857 18.8635C8.51986 20.4448 10.6645 21.3331 12.9008 21.3331H14.1656C14.7247 21.3818 15.2453 21.6382 15.6245 22.0519C16.0038 22.4656 16.2142 23.0064 16.2142 23.5676C16.2142 24.1288 16.0038 24.6696 15.6245 25.0833C15.2453 25.497 14.7247 25.7534 14.1656 25.8021H12.9008C9.47932 25.8021 6.19794 24.4429 3.77857 22.0235C1.35919 19.6041 0 16.3227 0 12.9012C0 9.47972 1.35919 6.19834 3.77857 3.77896C6.19794 1.35959 9.47932 0.000399123 12.9008 0.000399123H52.5308C54.8714 -0.0194024 57.1587 0.698056 59.0687 2.05106C60.9786 3.40406 62.4142 5.32395 63.1719 7.53853C63.9603 9.73869 64.0395 12.1306 63.3982 14.3781C62.757 16.6255 61.4275 18.6155 59.5968 20.0684L9.1402 60.7102C8.00563 61.5749 7.17439 62.777 6.76593 64.1438C6.35748 65.5105 6.39283 66.9716 6.86691 68.317C7.341 69.6625 8.2294 70.823 9.40446 71.6317C10.5795 72.4405 11.9807 72.856 13.4067 72.8184H54.116C56.3523 72.8184 58.497 71.9301 60.0783 70.3488C61.6596 68.7675 62.548 66.6228 62.548 64.3865C62.548 62.1502 61.6596 60.0055 60.0783 58.4242C58.497 56.8429 56.3523 55.9546 54.116 55.9546H51.7382C51.1791 55.906 50.6586 55.6495 50.2793 55.2358C49.9 54.8222 49.6896 54.2813 49.6896 53.7201C49.6896 53.1589 49.9 52.6181 50.2793 52.2044C50.6586 51.7907 51.1791 51.5343 51.7382 51.4857H54.116C57.5331 51.4857 60.8102 52.8431 63.2264 55.2593C65.6426 57.6755 67 60.9526 67 64.3696C67 67.7867 65.6426 71.0638 63.2264 73.48C60.8102 75.8962 57.5331 77.2536 54.116 77.2536" fill="white"/>
<path d="M6.25648 46.4265C5.93036 46.4203 5.60975 46.3413 5.31801 46.1955C5.02627 46.0496 4.77076 45.8405 4.5701 45.5833C4.38663 45.3544 4.25022 45.0915 4.16869 44.8098C4.08716 44.528 4.06214 44.2329 4.09505 43.9414C4.12796 43.6499 4.21816 43.3678 4.36046 43.1112C4.50276 42.8547 4.69436 42.6289 4.92424 42.4467L39.2421 15.1778H20.2535C19.956 15.1757 19.662 15.1144 19.3885 14.9975C19.115 14.8807 18.8675 14.7106 18.6603 14.4971C18.4531 14.2837 18.2905 14.0312 18.1819 13.7543C18.0732 13.4774 18.0207 13.1817 18.0274 12.8844C18.0486 12.3023 18.2904 11.7501 18.7038 11.3398C19.1172 10.9296 19.6713 10.6919 20.2535 10.6752H39.3096C40.1834 10.6663 41.0409 10.912 41.7776 11.3821C42.5142 11.8522 43.0981 12.5265 43.4581 13.3228C43.862 14.2116 43.9552 15.2105 43.7227 16.1587C43.4902 17.1069 42.9456 17.9494 42.1764 18.5506L7.65618 45.9375C7.25601 46.2498 6.7641 46.4217 6.25648 46.4265Z" fill="white"/>
<path d="M45.5492 66.4608H26.3244C25.4125 66.4499 24.5262 66.157 23.7873 65.6224C23.0484 65.0878 22.493 64.3376 22.1974 63.4748C21.9018 62.612 21.8804 61.6789 22.1363 60.8034C22.3921 59.928 22.9125 59.1532 23.6262 58.5853L58.0959 31.1985C58.3251 31.0169 58.5878 30.8822 58.8691 30.8022C59.1504 30.7221 59.4446 30.6982 59.7351 30.7319C60.0256 30.7656 60.3066 30.8561 60.5621 30.9984C60.8176 31.1406 61.0425 31.3318 61.2241 31.5611C61.4057 31.7903 61.5404 32.053 61.6205 32.3343C61.7005 32.6155 61.7244 32.9098 61.6907 33.2003C61.6571 33.4907 61.5665 33.7718 61.4242 34.0272C61.282 34.2827 61.0908 34.5077 60.8616 34.6893L26.4762 61.9918H45.5492C45.859 61.9649 46.1709 62.0027 46.4653 62.1027C46.7597 62.2028 47.03 62.3629 47.2592 62.5731C47.4884 62.7832 47.6714 63.0386 47.7966 63.3232C47.9218 63.6078 47.9864 63.9154 47.9864 64.2263C47.9864 64.5372 47.9218 64.8447 47.7966 65.1293C47.6714 65.4139 47.4884 65.6694 47.2592 65.8795C47.03 66.0896 46.7597 66.2498 46.4653 66.3499C46.1709 66.4499 45.859 66.4877 45.5492 66.4608Z" fill="white"/>
</svg>
