<svg width="205" height="204" viewBox="0 0 205 204" fill="none" xmlns="http://www.w3.org/2000/svg">
<rect width="205" height="204" rx="20" fill="white"/>
<path d="M193 12H12V193H193V12Z" fill="white"/>
<path d="M22.86 18.335H18.335V22.86H22.86V18.335Z" fill="black"/>
<path d="M27.385 18.335H22.86V22.86H27.385V18.335Z" fill="black"/>
<path d="M31.91 18.335H27.385V22.86H31.91V18.335Z" fill="black"/>
<path d="M36.435 18.335H31.91V22.86H36.435V18.335Z" fill="black"/>
<path d="M40.96 18.335H36.435V22.86H40.96V18.335Z" fill="black"/>
<path d="M45.485 18.335H40.96V22.86H45.485V18.335Z" fill="black"/>
<path d="M50.01 18.335H45.485V22.86H50.01V18.335Z" fill="black"/>
<path d="M63.585 18.335H59.06V22.86H63.585V18.335Z" fill="black"/>
<path d="M77.16 18.335H72.635V22.86H77.16V18.335Z" fill="black"/>
<path d="M81.685 18.335H77.16V22.86H81.685V18.335Z" fill="black"/>
<path d="M86.21 18.335H81.685V22.86H86.21V18.335Z" fill="black"/>
<path d="M95.26 18.335H90.735V22.86H95.26V18.335Z" fill="black"/>
<path d="M99.785 18.335H95.26V22.86H99.785V18.335Z" fill="black"/>
<path d="M104.31 18.335H99.785V22.86H104.31V18.335Z" fill="black"/>
<path d="M108.835 18.335H104.31V22.86H108.835V18.335Z" fill="black"/>
<path d="M117.885 18.335H113.36V22.86H117.885V18.335Z" fill="black"/>
<path d="M122.41 18.335H117.885V22.86H122.41V18.335Z" fill="black"/>
<path d="M126.935 18.335H122.41V22.86H126.935V18.335Z" fill="black"/>
<path d="M135.985 18.335H131.46V22.86H135.985V18.335Z" fill="black"/>
<path d="M140.51 18.335H135.985V22.86H140.51V18.335Z" fill="black"/>
<path d="M145.035 18.335H140.51V22.86H145.035V18.335Z" fill="black"/>
<path d="M158.61 18.335H154.085V22.86H158.61V18.335Z" fill="black"/>
<path d="M163.135 18.335H158.61V22.86H163.135V18.335Z" fill="black"/>
<path d="M167.66 18.335H163.135V22.86H167.66V18.335Z" fill="black"/>
<path d="M172.185 18.335H167.66V22.86H172.185V18.335Z" fill="black"/>
<path d="M176.71 18.335H172.185V22.86H176.71V18.335Z" fill="black"/>
<path d="M181.235 18.335H176.71V22.86H181.235V18.335Z" fill="black"/>
<path d="M185.76 18.335H181.235V22.86H185.76V18.335Z" fill="black"/>
<path d="M22.86 22.86H18.335V27.385H22.86V22.86Z" fill="black"/>
<path d="M50.01 22.86H45.485V27.385H50.01V22.86Z" fill="black"/>
<path d="M59.06 22.86H54.535V27.385H59.06V22.86Z" fill="black"/>
<path d="M72.635 22.86H68.11V27.385H72.635V22.86Z" fill="black"/>
<path d="M77.16 22.86H72.635V27.385H77.16V22.86Z" fill="black"/>
<path d="M81.685 22.86H77.16V27.385H81.685V22.86Z" fill="black"/>
<path d="M86.21 22.86H81.685V27.385H86.21V22.86Z" fill="black"/>
<path d="M90.735 22.86H86.21V27.385H90.735V22.86Z" fill="black"/>
<path d="M95.26 22.86H90.735V27.385H95.26V22.86Z" fill="black"/>
<path d="M99.785 22.86H95.26V27.385H99.785V22.86Z" fill="black"/>
<path d="M113.36 22.86H108.835V27.385H113.36V22.86Z" fill="black"/>
<path d="M117.885 22.86H113.36V27.385H117.885V22.86Z" fill="black"/>
<path d="M126.935 22.86H122.41V27.385H126.935V22.86Z" fill="black"/>
<path d="M145.035 22.86H140.51V27.385H145.035V22.86Z" fill="black"/>
<path d="M149.56 22.86H145.035V27.385H149.56V22.86Z" fill="black"/>
<path d="M158.61 22.86H154.085V27.385H158.61V22.86Z" fill="black"/>
<path d="M185.76 22.86H181.235V27.385H185.76V22.86Z" fill="black"/>
<path d="M22.86 27.385H18.335V31.91H22.86V27.385Z" fill="black"/>
<path d="M31.91 27.385H27.385V31.91H31.91V27.385Z" fill="black"/>
<path d="M36.435 27.385H31.91V31.91H36.435V27.385Z" fill="black"/>
<path d="M40.96 27.385H36.435V31.91H40.96V27.385Z" fill="black"/>
<path d="M50.01 27.385H45.485V31.91H50.01V27.385Z" fill="black"/>
<path d="M59.06 27.385H54.535V31.91H59.06V27.385Z" fill="black"/>
<path d="M63.585 27.385H59.06V31.91H63.585V27.385Z" fill="black"/>
<path d="M68.11 27.385H63.585V31.91H68.11V27.385Z" fill="black"/>
<path d="M72.635 27.385H68.11V31.91H72.635V27.385Z" fill="black"/>
<path d="M77.16 27.385H72.635V31.91H77.16V27.385Z" fill="black"/>
<path d="M81.685 27.385H77.16V31.91H81.685V27.385Z" fill="black"/>
<path d="M90.735 27.385H86.21V31.91H90.735V27.385Z" fill="black"/>
<path d="M99.785 27.385H95.26V31.91H99.785V27.385Z" fill="black"/>
<path d="M122.41 27.385H117.885V31.91H122.41V27.385Z" fill="black"/>
<path d="M126.935 27.385H122.41V31.91H126.935V27.385Z" fill="black"/>
<path d="M131.46 27.385H126.935V31.91H131.46V27.385Z" fill="black"/>
<path d="M140.51 27.385H135.985V31.91H140.51V27.385Z" fill="black"/>
<path d="M145.035 27.385H140.51V31.91H145.035V27.385Z" fill="black"/>
<path d="M158.61 27.385H154.085V31.91H158.61V27.385Z" fill="black"/>
<path d="M167.66 27.385H163.135V31.91H167.66V27.385Z" fill="black"/>
<path d="M172.185 27.385H167.66V31.91H172.185V27.385Z" fill="black"/>
<path d="M176.71 27.385H172.185V31.91H176.71V27.385Z" fill="black"/>
<path d="M185.76 27.385H181.235V31.91H185.76V27.385Z" fill="black"/>
<path d="M22.86 31.91H18.335V36.435H22.86V31.91Z" fill="black"/>
<path d="M31.91 31.91H27.385V36.435H31.91V31.91Z" fill="black"/>
<path d="M36.435 31.91H31.91V36.435H36.435V31.91Z" fill="black"/>
<path d="M40.96 31.91H36.435V36.435H40.96V31.91Z" fill="black"/>
<path d="M50.01 31.91H45.485V36.435H50.01V31.91Z" fill="black"/>
<path d="M63.585 31.91H59.06V36.435H63.585V31.91Z" fill="black"/>
<path d="M68.11 31.91H63.585V36.435H68.11V31.91Z" fill="black"/>
<path d="M72.635 31.91H68.11V36.435H72.635V31.91Z" fill="black"/>
<path d="M81.685 31.91H77.16V36.435H81.685V31.91Z" fill="black"/>
<path d="M86.21 31.91H81.685V36.435H86.21V31.91Z" fill="black"/>
<path d="M104.31 31.91H99.785V36.435H104.31V31.91Z" fill="black"/>
<path d="M108.835 31.91H104.31V36.435H108.835V31.91Z" fill="black"/>
<path d="M122.41 31.91H117.885V36.435H122.41V31.91Z" fill="black"/>
<path d="M126.935 31.91H122.41V36.435H126.935V31.91Z" fill="black"/>
<path d="M140.51 31.91H135.985V36.435H140.51V31.91Z" fill="black"/>
<path d="M158.61 31.91H154.085V36.435H158.61V31.91Z" fill="black"/>
<path d="M167.66 31.91H163.135V36.435H167.66V31.91Z" fill="black"/>
<path d="M172.185 31.91H167.66V36.435H172.185V31.91Z" fill="black"/>
<path d="M176.71 31.91H172.185V36.435H176.71V31.91Z" fill="black"/>
<path d="M185.76 31.91H181.235V36.435H185.76V31.91Z" fill="black"/>
<path d="M22.86 36.4351H18.335V40.9601H22.86V36.4351Z" fill="black"/>
<path d="M31.91 36.4351H27.385V40.9601H31.91V36.4351Z" fill="black"/>
<path d="M36.435 36.4351H31.91V40.9601H36.435V36.4351Z" fill="black"/>
<path d="M40.96 36.4351H36.435V40.9601H40.96V36.4351Z" fill="black"/>
<path d="M50.01 36.4351H45.485V40.9601H50.01V36.4351Z" fill="black"/>
<path d="M59.06 36.4351H54.535V40.9601H59.06V36.4351Z" fill="black"/>
<path d="M81.685 36.4351H77.16V40.9601H81.685V36.4351Z" fill="black"/>
<path d="M86.21 36.4351H81.685V40.9601H86.21V36.4351Z" fill="black"/>
<path d="M90.735 36.4351H86.21V40.9601H90.735V36.4351Z" fill="black"/>
<path d="M95.26 36.4351H90.735V40.9601H95.26V36.4351Z" fill="black"/>
<path d="M99.785 36.4351H95.26V40.9601H99.785V36.4351Z" fill="black"/>
<path d="M104.31 36.4351H99.785V40.9601H104.31V36.4351Z" fill="black"/>
<path d="M117.885 36.4351H113.36V40.9601H117.885V36.4351Z" fill="black"/>
<path d="M126.935 36.4351H122.41V40.9601H126.935V36.4351Z" fill="black"/>
<path d="M131.46 36.4351H126.935V40.9601H131.46V36.4351Z" fill="black"/>
<path d="M135.985 36.4351H131.46V40.9601H135.985V36.4351Z" fill="black"/>
<path d="M140.51 36.4351H135.985V40.9601H140.51V36.4351Z" fill="black"/>
<path d="M145.035 36.4351H140.51V40.9601H145.035V36.4351Z" fill="black"/>
<path d="M149.56 36.4351H145.035V40.9601H149.56V36.4351Z" fill="black"/>
<path d="M158.61 36.4351H154.085V40.9601H158.61V36.4351Z" fill="black"/>
<path d="M167.66 36.4351H163.135V40.9601H167.66V36.4351Z" fill="black"/>
<path d="M172.185 36.4351H167.66V40.9601H172.185V36.4351Z" fill="black"/>
<path d="M176.71 36.4351H172.185V40.9601H176.71V36.4351Z" fill="black"/>
<path d="M185.76 36.4351H181.235V40.9601H185.76V36.4351Z" fill="black"/>
<path d="M22.86 40.96H18.335V45.485H22.86V40.96Z" fill="black"/>
<path d="M50.01 40.96H45.485V45.485H50.01V40.96Z" fill="black"/>
<path d="M59.06 40.96H54.535V45.485H59.06V40.96Z" fill="black"/>
<path d="M63.585 40.96H59.06V45.485H63.585V40.96Z" fill="black"/>
<path d="M72.635 40.96H68.11V45.485H72.635V40.96Z" fill="black"/>
<path d="M81.685 40.96H77.16V45.485H81.685V40.96Z" fill="black"/>
<path d="M86.21 40.96H81.685V45.485H86.21V40.96Z" fill="black"/>
<path d="M90.735 40.96H86.21V45.485H90.735V40.96Z" fill="black"/>
<path d="M95.26 40.96H90.735V45.485H95.26V40.96Z" fill="black"/>
<path d="M104.31 40.96H99.785V45.485H104.31V40.96Z" fill="black"/>
<path d="M108.835 40.96H104.31V45.485H108.835V40.96Z" fill="black"/>
<path d="M113.36 40.96H108.835V45.485H113.36V40.96Z" fill="black"/>
<path d="M122.41 40.96H117.885V45.485H122.41V40.96Z" fill="black"/>
<path d="M131.46 40.96H126.935V45.485H131.46V40.96Z" fill="black"/>
<path d="M140.51 40.96H135.985V45.485H140.51V40.96Z" fill="black"/>
<path d="M145.035 40.96H140.51V45.485H145.035V40.96Z" fill="black"/>
<path d="M158.61 40.96H154.085V45.485H158.61V40.96Z" fill="black"/>
<path d="M185.76 40.96H181.235V45.485H185.76V40.96Z" fill="black"/>
<path d="M22.86 45.485H18.335V50.01H22.86V45.485Z" fill="black"/>
<path d="M27.385 45.485H22.86V50.01H27.385V45.485Z" fill="black"/>
<path d="M31.91 45.485H27.385V50.01H31.91V45.485Z" fill="black"/>
<path d="M36.435 45.485H31.91V50.01H36.435V45.485Z" fill="black"/>
<path d="M40.96 45.485H36.435V50.01H40.96V45.485Z" fill="black"/>
<path d="M45.485 45.485H40.96V50.01H45.485V45.485Z" fill="black"/>
<path d="M50.01 45.485H45.485V50.01H50.01V45.485Z" fill="black"/>
<path d="M59.06 45.485H54.535V50.01H59.06V45.485Z" fill="black"/>
<path d="M68.11 45.485H63.585V50.01H68.11V45.485Z" fill="black"/>
<path d="M77.16 45.485H72.635V50.01H77.16V45.485Z" fill="black"/>
<path d="M86.21 45.485H81.685V50.01H86.21V45.485Z" fill="black"/>
<path d="M95.26 45.485H90.735V50.01H95.26V45.485Z" fill="black"/>
<path d="M104.31 45.485H99.785V50.01H104.31V45.485Z" fill="black"/>
<path d="M113.36 45.485H108.835V50.01H113.36V45.485Z" fill="black"/>
<path d="M122.41 45.485H117.885V50.01H122.41V45.485Z" fill="black"/>
<path d="M131.46 45.485H126.935V50.01H131.46V45.485Z" fill="black"/>
<path d="M140.51 45.485H135.985V50.01H140.51V45.485Z" fill="black"/>
<path d="M149.56 45.485H145.035V50.01H149.56V45.485Z" fill="black"/>
<path d="M158.61 45.485H154.085V50.01H158.61V45.485Z" fill="black"/>
<path d="M163.135 45.485H158.61V50.01H163.135V45.485Z" fill="black"/>
<path d="M167.66 45.485H163.135V50.01H167.66V45.485Z" fill="black"/>
<path d="M172.185 45.485H167.66V50.01H172.185V45.485Z" fill="black"/>
<path d="M176.71 45.485H172.185V50.01H176.71V45.485Z" fill="black"/>
<path d="M181.235 45.485H176.71V50.01H181.235V45.485Z" fill="black"/>
<path d="M185.76 45.485H181.235V50.01H185.76V45.485Z" fill="black"/>
<path d="M59.06 50.01H54.535V54.535H59.06V50.01Z" fill="black"/>
<path d="M63.585 50.01H59.06V54.535H63.585V50.01Z" fill="black"/>
<path d="M77.16 50.01H72.635V54.535H77.16V50.01Z" fill="black"/>
<path d="M86.21 50.01H81.685V54.535H86.21V50.01Z" fill="black"/>
<path d="M99.785 50.01H95.26V54.535H99.785V50.01Z" fill="black"/>
<path d="M113.36 50.01H108.835V54.535H113.36V50.01Z" fill="black"/>
<path d="M117.885 50.01H113.36V54.535H117.885V50.01Z" fill="black"/>
<path d="M126.935 50.01H122.41V54.535H126.935V50.01Z" fill="black"/>
<path d="M140.51 50.01H135.985V54.535H140.51V50.01Z" fill="black"/>
<path d="M145.035 50.01H140.51V54.535H145.035V50.01Z" fill="black"/>
<path d="M149.56 50.01H145.035V54.535H149.56V50.01Z" fill="black"/>
<path d="M22.86 54.535H18.335V59.06H22.86V54.535Z" fill="black"/>
<path d="M27.385 54.535H22.86V59.06H27.385V54.535Z" fill="black"/>
<path d="M36.435 54.535H31.91V59.06H36.435V54.535Z" fill="black"/>
<path d="M50.01 54.535H45.485V59.06H50.01V54.535Z" fill="black"/>
<path d="M54.535 54.535H50.01V59.06H54.535V54.535Z" fill="black"/>
<path d="M68.11 54.535H63.585V59.06H68.11V54.535Z" fill="black"/>
<path d="M90.735 54.535H86.21V59.06H90.735V54.535Z" fill="black"/>
<path d="M95.26 54.535H90.735V59.06H95.26V54.535Z" fill="black"/>
<path d="M113.36 54.535H108.835V59.06H113.36V54.535Z" fill="black"/>
<path d="M117.885 54.535H113.36V59.06H117.885V54.535Z" fill="black"/>
<path d="M126.935 54.535H122.41V59.06H126.935V54.535Z" fill="black"/>
<path d="M131.46 54.535H126.935V59.06H131.46V54.535Z" fill="black"/>
<path d="M135.985 54.535H131.46V59.06H135.985V54.535Z" fill="black"/>
<path d="M140.51 54.535H135.985V59.06H140.51V54.535Z" fill="black"/>
<path d="M149.56 54.535H145.035V59.06H149.56V54.535Z" fill="black"/>
<path d="M158.61 54.535H154.085V59.06H158.61V54.535Z" fill="black"/>
<path d="M163.135 54.535H158.61V59.06H163.135V54.535Z" fill="black"/>
<path d="M167.66 54.535H163.135V59.06H167.66V54.535Z" fill="black"/>
<path d="M176.71 54.535H172.185V59.06H176.71V54.535Z" fill="black"/>
<path d="M181.235 54.535H176.71V59.06H181.235V54.535Z" fill="black"/>
<path d="M22.86 59.0601H18.335V63.5851H22.86V59.0601Z" fill="black"/>
<path d="M31.91 59.0601H27.385V63.5851H31.91V59.0601Z" fill="black"/>
<path d="M40.96 59.0601H36.435V63.5851H40.96V59.0601Z" fill="black"/>
<path d="M45.485 59.0601H40.96V63.5851H45.485V59.0601Z" fill="black"/>
<path d="M54.535 59.0601H50.01V63.5851H54.535V59.0601Z" fill="black"/>
<path d="M59.06 59.0601H54.535V63.5851H59.06V59.0601Z" fill="black"/>
<path d="M63.585 59.0601H59.06V63.5851H63.585V59.0601Z" fill="black"/>
<path d="M68.11 59.0601H63.585V63.5851H68.11V59.0601Z" fill="black"/>
<path d="M72.635 59.0601H68.11V63.5851H72.635V59.0601Z" fill="black"/>
<path d="M86.21 59.0601H81.685V63.5851H86.21V59.0601Z" fill="black"/>
<path d="M95.26 59.0601H90.735V63.5851H95.26V59.0601Z" fill="black"/>
<path d="M99.785 59.0601H95.26V63.5851H99.785V59.0601Z" fill="black"/>
<path d="M113.36 59.0601H108.835V63.5851H113.36V59.0601Z" fill="black"/>
<path d="M131.46 59.0601H126.935V63.5851H131.46V59.0601Z" fill="black"/>
<path d="M135.985 59.0601H131.46V63.5851H135.985V59.0601Z" fill="black"/>
<path d="M158.61 59.0601H154.085V63.5851H158.61V59.0601Z" fill="black"/>
<path d="M172.185 59.0601H167.66V63.5851H172.185V59.0601Z" fill="black"/>
<path d="M181.235 59.0601H176.71V63.5851H181.235V59.0601Z" fill="black"/>
<path d="M185.76 59.0601H181.235V63.5851H185.76V59.0601Z" fill="black"/>
<path d="M22.86 63.585H18.335V68.11H22.86V63.585Z" fill="black"/>
<path d="M27.385 63.585H22.86V68.11H27.385V63.585Z" fill="black"/>
<path d="M31.91 63.585H27.385V68.11H31.91V63.585Z" fill="black"/>
<path d="M40.96 63.585H36.435V68.11H40.96V63.585Z" fill="black"/>
<path d="M50.01 63.585H45.485V68.11H50.01V63.585Z" fill="black"/>
<path d="M59.06 63.585H54.535V68.11H59.06V63.585Z" fill="black"/>
<path d="M63.585 63.585H59.06V68.11H63.585V63.585Z" fill="black"/>
<path d="M68.11 63.585H63.585V68.11H68.11V63.585Z" fill="black"/>
<path d="M95.26 63.585H90.735V68.11H95.26V63.585Z" fill="black"/>
<path d="M108.835 63.585H104.31V68.11H108.835V63.585Z" fill="black"/>
<path d="M117.885 63.585H113.36V68.11H117.885V63.585Z" fill="black"/>
<path d="M122.41 63.585H117.885V68.11H122.41V63.585Z" fill="black"/>
<path d="M131.46 63.585H126.935V68.11H131.46V63.585Z" fill="black"/>
<path d="M135.985 63.585H131.46V68.11H135.985V63.585Z" fill="black"/>
<path d="M158.61 63.585H154.085V68.11H158.61V63.585Z" fill="black"/>
<path d="M167.66 63.585H163.135V68.11H167.66V63.585Z" fill="black"/>
<path d="M185.76 63.585H181.235V68.11H185.76V63.585Z" fill="black"/>
<path d="M27.385 68.11H22.86V72.635H27.385V68.11Z" fill="black"/>
<path d="M31.91 68.11H27.385V72.635H31.91V68.11Z" fill="black"/>
<path d="M40.96 68.11H36.435V72.635H40.96V68.11Z" fill="black"/>
<path d="M45.485 68.11H40.96V72.635H45.485V68.11Z" fill="black"/>
<path d="M63.585 68.11H59.06V72.635H63.585V68.11Z" fill="black"/>
<path d="M86.21 68.11H81.685V72.635H86.21V68.11Z" fill="black"/>
<path d="M90.735 68.11H86.21V72.635H90.735V68.11Z" fill="black"/>
<path d="M104.31 68.11H99.785V72.635H104.31V68.11Z" fill="black"/>
<path d="M108.835 68.11H104.31V72.635H108.835V68.11Z" fill="black"/>
<path d="M117.885 68.11H113.36V72.635H117.885V68.11Z" fill="black"/>
<path d="M135.985 68.11H131.46V72.635H135.985V68.11Z" fill="black"/>
<path d="M149.56 68.11H145.035V72.635H149.56V68.11Z" fill="black"/>
<path d="M158.61 68.11H154.085V72.635H158.61V68.11Z" fill="black"/>
<path d="M163.135 68.11H158.61V72.635H163.135V68.11Z" fill="black"/>
<path d="M167.66 68.11H163.135V72.635H167.66V68.11Z" fill="black"/>
<path d="M181.235 68.11H176.71V72.635H181.235V68.11Z" fill="black"/>
<path d="M185.76 68.11H181.235V72.635H185.76V68.11Z" fill="black"/>
<path d="M31.91 72.635H27.385V77.16H31.91V72.635Z" fill="black"/>
<path d="M36.435 72.635H31.91V77.16H36.435V72.635Z" fill="black"/>
<path d="M45.485 72.635H40.96V77.16H45.485V72.635Z" fill="black"/>
<path d="M50.01 72.635H45.485V77.16H50.01V72.635Z" fill="black"/>
<path d="M54.535 72.635H50.01V77.16H54.535V72.635Z" fill="black"/>
<path d="M59.06 72.635H54.535V77.16H59.06V72.635Z" fill="black"/>
<path d="M77.16 72.635H72.635V77.16H77.16V72.635Z" fill="black"/>
<path d="M90.735 72.635H86.21V77.16H90.735V72.635Z" fill="black"/>
<path d="M95.26 72.635H90.735V77.16H95.26V72.635Z" fill="black"/>
<path d="M99.785 72.635H95.26V77.16H99.785V72.635Z" fill="black"/>
<path d="M113.36 72.635H108.835V77.16H113.36V72.635Z" fill="black"/>
<path d="M117.885 72.635H113.36V77.16H117.885V72.635Z" fill="black"/>
<path d="M131.46 72.635H126.935V77.16H131.46V72.635Z" fill="black"/>
<path d="M135.985 72.635H131.46V77.16H135.985V72.635Z" fill="black"/>
<path d="M140.51 72.635H135.985V77.16H140.51V72.635Z" fill="black"/>
<path d="M145.035 72.635H140.51V77.16H145.035V72.635Z" fill="black"/>
<path d="M149.56 72.635H145.035V77.16H149.56V72.635Z" fill="black"/>
<path d="M154.085 72.635H149.56V77.16H154.085V72.635Z" fill="black"/>
<path d="M158.61 72.635H154.085V77.16H158.61V72.635Z" fill="black"/>
<path d="M172.185 72.635H167.66V77.16H172.185V72.635Z" fill="black"/>
<path d="M176.71 72.635H172.185V77.16H176.71V72.635Z" fill="black"/>
<path d="M181.235 72.635H176.71V77.16H181.235V72.635Z" fill="black"/>
<path d="M22.86 77.16H18.335V81.685H22.86V77.16Z" fill="black"/>
<path d="M27.385 77.16H22.86V81.685H27.385V77.16Z" fill="black"/>
<path d="M36.435 77.16H31.91V81.685H36.435V77.16Z" fill="black"/>
<path d="M45.485 77.16H40.96V81.685H45.485V77.16Z" fill="black"/>
<path d="M59.06 77.16H54.535V81.685H59.06V77.16Z" fill="black"/>
<path d="M63.585 77.16H59.06V81.685H63.585V77.16Z" fill="black"/>
<path d="M68.11 77.16H63.585V81.685H68.11V77.16Z" fill="black"/>
<path d="M72.635 77.16H68.11V81.685H72.635V77.16Z" fill="black"/>
<path d="M77.16 77.16H72.635V81.685H77.16V77.16Z" fill="black"/>
<path d="M99.785 77.16H95.26V81.685H99.785V77.16Z" fill="black"/>
<path d="M108.835 77.16H104.31V81.685H108.835V77.16Z" fill="black"/>
<path d="M113.36 77.16H108.835V81.685H113.36V77.16Z" fill="black"/>
<path d="M117.885 77.16H113.36V81.685H117.885V77.16Z" fill="black"/>
<path d="M122.41 77.16H117.885V81.685H122.41V77.16Z" fill="black"/>
<path d="M154.085 77.16H149.56V81.685H154.085V77.16Z" fill="black"/>
<path d="M158.61 77.16H154.085V81.685H158.61V77.16Z" fill="black"/>
<path d="M163.135 77.16H158.61V81.685H163.135V77.16Z" fill="black"/>
<path d="M176.71 77.16H172.185V81.685H176.71V77.16Z" fill="black"/>
<path d="M181.235 77.16H176.71V81.685H181.235V77.16Z" fill="black"/>
<path d="M185.76 77.16H181.235V81.685H185.76V77.16Z" fill="black"/>
<path d="M27.385 81.6851H22.86V86.2101H27.385V81.6851Z" fill="black"/>
<path d="M36.435 81.6851H31.91V86.2101H36.435V81.6851Z" fill="black"/>
<path d="M45.485 81.6851H40.96V86.2101H45.485V81.6851Z" fill="black"/>
<path d="M50.01 81.6851H45.485V86.2101H50.01V81.6851Z" fill="black"/>
<path d="M63.585 81.6851H59.06V86.2101H63.585V81.6851Z" fill="black"/>
<path d="M77.16 81.6851H72.635V86.2101H77.16V81.6851Z" fill="black"/>
<path d="M95.26 81.6851H90.735V86.2101H95.26V81.6851Z" fill="black"/>
<path d="M99.785 81.6851H95.26V86.2101H99.785V81.6851Z" fill="black"/>
<path d="M117.885 81.6851H113.36V86.2101H117.885V81.6851Z" fill="black"/>
<path d="M126.935 81.6851H122.41V86.2101H126.935V81.6851Z" fill="black"/>
<path d="M167.66 81.6851H163.135V86.2101H167.66V81.6851Z" fill="black"/>
<path d="M172.185 81.6851H167.66V86.2101H172.185V81.6851Z" fill="black"/>
<path d="M185.76 81.6851H181.235V86.2101H185.76V81.6851Z" fill="black"/>
<path d="M22.86 86.21H18.335V90.735H22.86V86.21Z" fill="black"/>
<path d="M40.96 86.21H36.435V90.735H40.96V86.21Z" fill="black"/>
<path d="M45.485 86.21H40.96V90.735H45.485V86.21Z" fill="black"/>
<path d="M68.11 86.21H63.585V90.735H68.11V86.21Z" fill="black"/>
<path d="M77.16 86.21H72.635V90.735H77.16V86.21Z" fill="black"/>
<path d="M81.685 86.21H77.16V90.735H81.685V86.21Z" fill="black"/>
<path d="M86.21 86.21H81.685V90.735H86.21V86.21Z" fill="black"/>
<path d="M90.735 86.21H86.21V90.735H90.735V86.21Z" fill="black"/>
<path d="M95.26 86.21H90.735V90.735H95.26V86.21Z" fill="black"/>
<path d="M99.785 86.21H95.26V90.735H99.785V86.21Z" fill="black"/>
<path d="M108.835 86.21H104.31V90.735H108.835V86.21Z" fill="black"/>
<path d="M113.36 86.21H108.835V90.735H113.36V86.21Z" fill="black"/>
<path d="M117.885 86.21H113.36V90.735H117.885V86.21Z" fill="black"/>
<path d="M122.41 86.21H117.885V90.735H122.41V86.21Z" fill="black"/>
<path d="M126.935 86.21H122.41V90.735H126.935V86.21Z" fill="black"/>
<path d="M131.46 86.21H126.935V90.735H131.46V86.21Z" fill="black"/>
<path d="M135.985 86.21H131.46V90.735H135.985V86.21Z" fill="black"/>
<path d="M149.56 86.21H145.035V90.735H149.56V86.21Z" fill="black"/>
<path d="M154.085 86.21H149.56V90.735H154.085V86.21Z" fill="black"/>
<path d="M158.61 86.21H154.085V90.735H158.61V86.21Z" fill="black"/>
<path d="M163.135 86.21H158.61V90.735H163.135V86.21Z" fill="black"/>
<path d="M181.235 86.21H176.71V90.735H181.235V86.21Z" fill="black"/>
<path d="M22.86 90.735H18.335V95.26H22.86V90.735Z" fill="black"/>
<path d="M36.435 90.735H31.91V95.26H36.435V90.735Z" fill="black"/>
<path d="M50.01 90.735H45.485V95.26H50.01V90.735Z" fill="black"/>
<path d="M54.535 90.735H50.01V95.26H54.535V90.735Z" fill="black"/>
<path d="M59.06 90.735H54.535V95.26H59.06V90.735Z" fill="black"/>
<path d="M63.585 90.735H59.06V95.26H63.585V90.735Z" fill="black"/>
<path d="M68.11 90.735H63.585V95.26H68.11V90.735Z" fill="black"/>
<path d="M72.635 90.735H68.11V95.26H72.635V90.735Z" fill="black"/>
<path d="M81.685 90.735H77.16V95.26H81.685V90.735Z" fill="black"/>
<path d="M86.21 90.735H81.685V95.26H86.21V90.735Z" fill="black"/>
<path d="M95.26 90.735H90.735V95.26H95.26V90.735Z" fill="black"/>
<path d="M99.785 90.735H95.26V95.26H99.785V90.735Z" fill="black"/>
<path d="M104.31 90.735H99.785V95.26H104.31V90.735Z" fill="black"/>
<path d="M108.835 90.735H104.31V95.26H108.835V90.735Z" fill="black"/>
<path d="M113.36 90.735H108.835V95.26H113.36V90.735Z" fill="black"/>
<path d="M117.885 90.735H113.36V95.26H117.885V90.735Z" fill="black"/>
<path d="M154.085 90.735H149.56V95.26H154.085V90.735Z" fill="black"/>
<path d="M158.61 90.735H154.085V95.26H158.61V90.735Z" fill="black"/>
<path d="M163.135 90.735H158.61V95.26H163.135V90.735Z" fill="black"/>
<path d="M176.71 90.735H172.185V95.26H176.71V90.735Z" fill="black"/>
<path d="M181.235 90.735H176.71V95.26H181.235V90.735Z" fill="black"/>
<path d="M40.96 95.26H36.435V99.785H40.96V95.26Z" fill="black"/>
<path d="M63.585 95.26H59.06V99.785H63.585V95.26Z" fill="black"/>
<path d="M95.26 95.26H90.735V99.785H95.26V95.26Z" fill="black"/>
<path d="M117.885 95.26H113.36V99.785H117.885V95.26Z" fill="black"/>
<path d="M126.935 95.26H122.41V99.785H126.935V95.26Z" fill="black"/>
<path d="M131.46 95.26H126.935V99.785H131.46V95.26Z" fill="black"/>
<path d="M140.51 95.26H135.985V99.785H140.51V95.26Z" fill="black"/>
<path d="M149.56 95.26H145.035V99.785H149.56V95.26Z" fill="black"/>
<path d="M158.61 95.26H154.085V99.785H158.61V95.26Z" fill="black"/>
<path d="M167.66 95.26H163.135V99.785H167.66V95.26Z" fill="black"/>
<path d="M176.71 95.26H172.185V99.785H176.71V95.26Z" fill="black"/>
<path d="M185.76 95.26H181.235V99.785H185.76V95.26Z" fill="black"/>
<path d="M22.86 99.785H18.335V104.31H22.86V99.785Z" fill="black"/>
<path d="M40.96 99.785H36.435V104.31H40.96V99.785Z" fill="black"/>
<path d="M50.01 99.785H45.485V104.31H50.01V99.785Z" fill="black"/>
<path d="M54.535 99.785H50.01V104.31H54.535V99.785Z" fill="black"/>
<path d="M59.06 99.785H54.535V104.31H59.06V99.785Z" fill="black"/>
<path d="M68.11 99.785H63.585V104.31H68.11V99.785Z" fill="black"/>
<path d="M81.685 99.785H77.16V104.31H81.685V99.785Z" fill="black"/>
<path d="M104.31 99.785H99.785V104.31H104.31V99.785Z" fill="black"/>
<path d="M113.36 99.785H108.835V104.31H113.36V99.785Z" fill="black"/>
<path d="M122.41 99.785H117.885V104.31H122.41V99.785Z" fill="black"/>
<path d="M158.61 99.785H154.085V104.31H158.61V99.785Z" fill="black"/>
<path d="M167.66 99.785H163.135V104.31H167.66V99.785Z" fill="black"/>
<path d="M172.185 99.785H167.66V104.31H172.185V99.785Z" fill="black"/>
<path d="M181.235 99.785H176.71V104.31H181.235V99.785Z" fill="black"/>
<path d="M185.76 99.785H181.235V104.31H185.76V99.785Z" fill="black"/>
<path d="M22.86 104.31H18.335V108.835H22.86V104.31Z" fill="black"/>
<path d="M40.96 104.31H36.435V108.835H40.96V104.31Z" fill="black"/>
<path d="M45.485 104.31H40.96V108.835H45.485V104.31Z" fill="black"/>
<path d="M54.535 104.31H50.01V108.835H54.535V104.31Z" fill="black"/>
<path d="M72.635 104.31H68.11V108.835H72.635V104.31Z" fill="black"/>
<path d="M81.685 104.31H77.16V108.835H81.685V104.31Z" fill="black"/>
<path d="M90.735 104.31H86.21V108.835H90.735V104.31Z" fill="black"/>
<path d="M95.26 104.31H90.735V108.835H95.26V104.31Z" fill="black"/>
<path d="M99.785 104.31H95.26V108.835H99.785V104.31Z" fill="black"/>
<path d="M117.885 104.31H113.36V108.835H117.885V104.31Z" fill="black"/>
<path d="M122.41 104.31H117.885V108.835H122.41V104.31Z" fill="black"/>
<path d="M131.46 104.31H126.935V108.835H131.46V104.31Z" fill="black"/>
<path d="M140.51 104.31H135.985V108.835H140.51V104.31Z" fill="black"/>
<path d="M145.035 104.31H140.51V108.835H145.035V104.31Z" fill="black"/>
<path d="M149.56 104.31H145.035V108.835H149.56V104.31Z" fill="black"/>
<path d="M176.71 104.31H172.185V108.835H176.71V104.31Z" fill="black"/>
<path d="M181.235 104.31H176.71V108.835H181.235V104.31Z" fill="black"/>
<path d="M22.86 108.835H18.335V113.36H22.86V108.835Z" fill="black"/>
<path d="M45.485 108.835H40.96V113.36H45.485V108.835Z" fill="black"/>
<path d="M50.01 108.835H45.485V113.36H50.01V108.835Z" fill="black"/>
<path d="M54.535 108.835H50.01V113.36H54.535V108.835Z" fill="black"/>
<path d="M68.11 108.835H63.585V113.36H68.11V108.835Z" fill="black"/>
<path d="M72.635 108.835H68.11V113.36H72.635V108.835Z" fill="black"/>
<path d="M77.16 108.835H72.635V113.36H77.16V108.835Z" fill="black"/>
<path d="M86.21 108.835H81.685V113.36H86.21V108.835Z" fill="black"/>
<path d="M95.26 108.835H90.735V113.36H95.26V108.835Z" fill="black"/>
<path d="M117.885 108.835H113.36V113.36H117.885V108.835Z" fill="black"/>
<path d="M131.46 108.835H126.935V113.36H131.46V108.835Z" fill="black"/>
<path d="M135.985 108.835H131.46V113.36H135.985V108.835Z" fill="black"/>
<path d="M140.51 108.835H135.985V113.36H140.51V108.835Z" fill="black"/>
<path d="M145.035 108.835H140.51V113.36H145.035V108.835Z" fill="black"/>
<path d="M149.56 108.835H145.035V113.36H149.56V108.835Z" fill="black"/>
<path d="M158.61 108.835H154.085V113.36H158.61V108.835Z" fill="black"/>
<path d="M167.66 108.835H163.135V113.36H167.66V108.835Z" fill="black"/>
<path d="M172.185 108.835H167.66V113.36H172.185V108.835Z" fill="black"/>
<path d="M22.86 113.36H18.335V117.885H22.86V113.36Z" fill="black"/>
<path d="M31.91 113.36H27.385V117.885H31.91V113.36Z" fill="black"/>
<path d="M40.96 113.36H36.435V117.885H40.96V113.36Z" fill="black"/>
<path d="M45.485 113.36H40.96V117.885H45.485V113.36Z" fill="black"/>
<path d="M59.06 113.36H54.535V117.885H59.06V113.36Z" fill="black"/>
<path d="M63.585 113.36H59.06V117.885H63.585V113.36Z" fill="black"/>
<path d="M68.11 113.36H63.585V117.885H68.11V113.36Z" fill="black"/>
<path d="M72.635 113.36H68.11V117.885H72.635V113.36Z" fill="black"/>
<path d="M77.16 113.36H72.635V117.885H77.16V113.36Z" fill="black"/>
<path d="M81.685 113.36H77.16V117.885H81.685V113.36Z" fill="black"/>
<path d="M95.26 113.36H90.735V117.885H95.26V113.36Z" fill="black"/>
<path d="M99.785 113.36H95.26V117.885H99.785V113.36Z" fill="black"/>
<path d="M104.31 113.36H99.785V117.885H104.31V113.36Z" fill="black"/>
<path d="M117.885 113.36H113.36V117.885H117.885V113.36Z" fill="black"/>
<path d="M122.41 113.36H117.885V117.885H122.41V113.36Z" fill="black"/>
<path d="M131.46 113.36H126.935V117.885H131.46V113.36Z" fill="black"/>
<path d="M135.985 113.36H131.46V117.885H135.985V113.36Z" fill="black"/>
<path d="M149.56 113.36H145.035V117.885H149.56V113.36Z" fill="black"/>
<path d="M154.085 113.36H149.56V117.885H154.085V113.36Z" fill="black"/>
<path d="M158.61 113.36H154.085V117.885H158.61V113.36Z" fill="black"/>
<path d="M163.135 113.36H158.61V117.885H163.135V113.36Z" fill="black"/>
<path d="M172.185 113.36H167.66V117.885H172.185V113.36Z" fill="black"/>
<path d="M181.235 113.36H176.71V117.885H181.235V113.36Z" fill="black"/>
<path d="M185.76 113.36H181.235V117.885H185.76V113.36Z" fill="black"/>
<path d="M31.91 117.885H27.385V122.41H31.91V117.885Z" fill="black"/>
<path d="M45.485 117.885H40.96V122.41H45.485V117.885Z" fill="black"/>
<path d="M50.01 117.885H45.485V122.41H50.01V117.885Z" fill="black"/>
<path d="M72.635 117.885H68.11V122.41H72.635V117.885Z" fill="black"/>
<path d="M77.16 117.885H72.635V122.41H77.16V117.885Z" fill="black"/>
<path d="M81.685 117.885H77.16V122.41H81.685V117.885Z" fill="black"/>
<path d="M86.21 117.885H81.685V122.41H86.21V117.885Z" fill="black"/>
<path d="M104.31 117.885H99.785V122.41H104.31V117.885Z" fill="black"/>
<path d="M108.835 117.885H104.31V122.41H108.835V117.885Z" fill="black"/>
<path d="M113.36 117.885H108.835V122.41H113.36V117.885Z" fill="black"/>
<path d="M122.41 117.885H117.885V122.41H122.41V117.885Z" fill="black"/>
<path d="M135.985 117.885H131.46V122.41H135.985V117.885Z" fill="black"/>
<path d="M149.56 117.885H145.035V122.41H149.56V117.885Z" fill="black"/>
<path d="M154.085 117.885H149.56V122.41H154.085V117.885Z" fill="black"/>
<path d="M176.71 117.885H172.185V122.41H176.71V117.885Z" fill="black"/>
<path d="M181.235 117.885H176.71V122.41H181.235V117.885Z" fill="black"/>
<path d="M185.76 117.885H181.235V122.41H185.76V117.885Z" fill="black"/>
<path d="M27.385 122.41H22.86V126.935H27.385V122.41Z" fill="black"/>
<path d="M31.91 122.41H27.385V126.935H31.91V122.41Z" fill="black"/>
<path d="M40.96 122.41H36.435V126.935H40.96V122.41Z" fill="black"/>
<path d="M54.535 122.41H50.01V126.935H54.535V122.41Z" fill="black"/>
<path d="M59.06 122.41H54.535V126.935H59.06V122.41Z" fill="black"/>
<path d="M72.635 122.41H68.11V126.935H72.635V122.41Z" fill="black"/>
<path d="M77.16 122.41H72.635V126.935H77.16V122.41Z" fill="black"/>
<path d="M81.685 122.41H77.16V126.935H81.685V122.41Z" fill="black"/>
<path d="M104.31 122.41H99.785V126.935H104.31V122.41Z" fill="black"/>
<path d="M113.36 122.41H108.835V126.935H113.36V122.41Z" fill="black"/>
<path d="M117.885 122.41H113.36V126.935H117.885V122.41Z" fill="black"/>
<path d="M135.985 122.41H131.46V126.935H135.985V122.41Z" fill="black"/>
<path d="M163.135 122.41H158.61V126.935H163.135V122.41Z" fill="black"/>
<path d="M167.66 122.41H163.135V126.935H167.66V122.41Z" fill="black"/>
<path d="M181.235 122.41H176.71V126.935H181.235V122.41Z" fill="black"/>
<path d="M45.485 126.935H40.96V131.46H45.485V126.935Z" fill="black"/>
<path d="M50.01 126.935H45.485V131.46H50.01V126.935Z" fill="black"/>
<path d="M54.535 126.935H50.01V131.46H54.535V126.935Z" fill="black"/>
<path d="M63.585 126.935H59.06V131.46H63.585V126.935Z" fill="black"/>
<path d="M68.11 126.935H63.585V131.46H68.11V126.935Z" fill="black"/>
<path d="M72.635 126.935H68.11V131.46H72.635V126.935Z" fill="black"/>
<path d="M86.21 126.935H81.685V131.46H86.21V126.935Z" fill="black"/>
<path d="M99.785 126.935H95.26V131.46H99.785V126.935Z" fill="black"/>
<path d="M117.885 126.935H113.36V131.46H117.885V126.935Z" fill="black"/>
<path d="M126.935 126.935H122.41V131.46H126.935V126.935Z" fill="black"/>
<path d="M135.985 126.935H131.46V131.46H135.985V126.935Z" fill="black"/>
<path d="M154.085 126.935H149.56V131.46H154.085V126.935Z" fill="black"/>
<path d="M158.61 126.935H154.085V131.46H158.61V126.935Z" fill="black"/>
<path d="M163.135 126.935H158.61V131.46H163.135V126.935Z" fill="black"/>
<path d="M181.235 126.935H176.71V131.46H181.235V126.935Z" fill="black"/>
<path d="M185.76 126.935H181.235V131.46H185.76V126.935Z" fill="black"/>
<path d="M31.91 131.46H27.385V135.985H31.91V131.46Z" fill="black"/>
<path d="M45.485 131.46H40.96V135.985H45.485V131.46Z" fill="black"/>
<path d="M54.535 131.46H50.01V135.985H54.535V131.46Z" fill="black"/>
<path d="M59.06 131.46H54.535V135.985H59.06V131.46Z" fill="black"/>
<path d="M63.585 131.46H59.06V135.985H63.585V131.46Z" fill="black"/>
<path d="M68.11 131.46H63.585V135.985H68.11V131.46Z" fill="black"/>
<path d="M72.635 131.46H68.11V135.985H72.635V131.46Z" fill="black"/>
<path d="M81.685 131.46H77.16V135.985H81.685V131.46Z" fill="black"/>
<path d="M86.21 131.46H81.685V135.985H86.21V131.46Z" fill="black"/>
<path d="M99.785 131.46H95.26V135.985H99.785V131.46Z" fill="black"/>
<path d="M104.31 131.46H99.785V135.985H104.31V131.46Z" fill="black"/>
<path d="M108.835 131.46H104.31V135.985H108.835V131.46Z" fill="black"/>
<path d="M113.36 131.46H108.835V135.985H113.36V131.46Z" fill="black"/>
<path d="M117.885 131.46H113.36V135.985H117.885V131.46Z" fill="black"/>
<path d="M122.41 131.46H117.885V135.985H122.41V131.46Z" fill="black"/>
<path d="M131.46 131.46H126.935V135.985H131.46V131.46Z" fill="black"/>
<path d="M154.085 131.46H149.56V135.985H154.085V131.46Z" fill="black"/>
<path d="M158.61 131.46H154.085V135.985H158.61V131.46Z" fill="black"/>
<path d="M163.135 131.46H158.61V135.985H163.135V131.46Z" fill="black"/>
<path d="M181.235 131.46H176.71V135.985H181.235V131.46Z" fill="black"/>
<path d="M185.76 131.46H181.235V135.985H185.76V131.46Z" fill="black"/>
<path d="M22.86 135.985H18.335V140.51H22.86V135.985Z" fill="black"/>
<path d="M31.91 135.985H27.385V140.51H31.91V135.985Z" fill="black"/>
<path d="M45.485 135.985H40.96V140.51H45.485V135.985Z" fill="black"/>
<path d="M50.01 135.985H45.485V140.51H50.01V135.985Z" fill="black"/>
<path d="M54.535 135.985H50.01V140.51H54.535V135.985Z" fill="black"/>
<path d="M59.06 135.985H54.535V140.51H59.06V135.985Z" fill="black"/>
<path d="M68.11 135.985H63.585V140.51H68.11V135.985Z" fill="black"/>
<path d="M72.635 135.985H68.11V140.51H72.635V135.985Z" fill="black"/>
<path d="M81.685 135.985H77.16V140.51H81.685V135.985Z" fill="black"/>
<path d="M86.21 135.985H81.685V140.51H86.21V135.985Z" fill="black"/>
<path d="M104.31 135.985H99.785V140.51H104.31V135.985Z" fill="black"/>
<path d="M113.36 135.985H108.835V140.51H113.36V135.985Z" fill="black"/>
<path d="M126.935 135.985H122.41V140.51H126.935V135.985Z" fill="black"/>
<path d="M131.46 135.985H126.935V140.51H131.46V135.985Z" fill="black"/>
<path d="M140.51 135.985H135.985V140.51H140.51V135.985Z" fill="black"/>
<path d="M154.085 135.985H149.56V140.51H154.085V135.985Z" fill="black"/>
<path d="M176.71 135.985H172.185V140.51H176.71V135.985Z" fill="black"/>
<path d="M185.76 135.985H181.235V140.51H185.76V135.985Z" fill="black"/>
<path d="M27.385 140.51H22.86V145.035H27.385V140.51Z" fill="black"/>
<path d="M45.485 140.51H40.96V145.035H45.485V140.51Z" fill="black"/>
<path d="M68.11 140.51H63.585V145.035H68.11V140.51Z" fill="black"/>
<path d="M72.635 140.51H68.11V145.035H72.635V140.51Z" fill="black"/>
<path d="M90.735 140.51H86.21V145.035H90.735V140.51Z" fill="black"/>
<path d="M95.26 140.51H90.735V145.035H95.26V140.51Z" fill="black"/>
<path d="M99.785 140.51H95.26V145.035H99.785V140.51Z" fill="black"/>
<path d="M113.36 140.51H108.835V145.035H113.36V140.51Z" fill="black"/>
<path d="M117.885 140.51H113.36V145.035H117.885V140.51Z" fill="black"/>
<path d="M122.41 140.51H117.885V145.035H122.41V140.51Z" fill="black"/>
<path d="M126.935 140.51H122.41V145.035H126.935V140.51Z" fill="black"/>
<path d="M135.985 140.51H131.46V145.035H135.985V140.51Z" fill="black"/>
<path d="M140.51 140.51H135.985V145.035H140.51V140.51Z" fill="black"/>
<path d="M145.035 140.51H140.51V145.035H145.035V140.51Z" fill="black"/>
<path d="M149.56 140.51H145.035V145.035H149.56V140.51Z" fill="black"/>
<path d="M181.235 140.51H176.71V145.035H181.235V140.51Z" fill="black"/>
<path d="M22.86 145.035H18.335V149.56H22.86V145.035Z" fill="black"/>
<path d="M27.385 145.035H22.86V149.56H27.385V145.035Z" fill="black"/>
<path d="M36.435 145.035H31.91V149.56H36.435V145.035Z" fill="black"/>
<path d="M40.96 145.035H36.435V149.56H40.96V145.035Z" fill="black"/>
<path d="M45.485 145.035H40.96V149.56H45.485V145.035Z" fill="black"/>
<path d="M50.01 145.035H45.485V149.56H50.01V145.035Z" fill="black"/>
<path d="M54.535 145.035H50.01V149.56H54.535V145.035Z" fill="black"/>
<path d="M59.06 145.035H54.535V149.56H59.06V145.035Z" fill="black"/>
<path d="M63.585 145.035H59.06V149.56H63.585V145.035Z" fill="black"/>
<path d="M77.16 145.035H72.635V149.56H77.16V145.035Z" fill="black"/>
<path d="M81.685 145.035H77.16V149.56H81.685V145.035Z" fill="black"/>
<path d="M99.785 145.035H95.26V149.56H99.785V145.035Z" fill="black"/>
<path d="M104.31 145.035H99.785V149.56H104.31V145.035Z" fill="black"/>
<path d="M113.36 145.035H108.835V149.56H113.36V145.035Z" fill="black"/>
<path d="M117.885 145.035H113.36V149.56H117.885V145.035Z" fill="black"/>
<path d="M122.41 145.035H117.885V149.56H122.41V145.035Z" fill="black"/>
<path d="M131.46 145.035H126.935V149.56H131.46V145.035Z" fill="black"/>
<path d="M149.56 145.035H145.035V149.56H149.56V145.035Z" fill="black"/>
<path d="M154.085 145.035H149.56V149.56H154.085V145.035Z" fill="black"/>
<path d="M158.61 145.035H154.085V149.56H158.61V145.035Z" fill="black"/>
<path d="M163.135 145.035H158.61V149.56H163.135V145.035Z" fill="black"/>
<path d="M167.66 145.035H163.135V149.56H167.66V145.035Z" fill="black"/>
<path d="M176.71 145.035H172.185V149.56H176.71V145.035Z" fill="black"/>
<path d="M59.06 149.56H54.535V154.085H59.06V149.56Z" fill="black"/>
<path d="M77.16 149.56H72.635V154.085H77.16V149.56Z" fill="black"/>
<path d="M81.685 149.56H77.16V154.085H81.685V149.56Z" fill="black"/>
<path d="M86.21 149.56H81.685V154.085H86.21V149.56Z" fill="black"/>
<path d="M95.26 149.56H90.735V154.085H95.26V149.56Z" fill="black"/>
<path d="M122.41 149.56H117.885V154.085H122.41V149.56Z" fill="black"/>
<path d="M126.935 149.56H122.41V154.085H126.935V149.56Z" fill="black"/>
<path d="M135.985 149.56H131.46V154.085H135.985V149.56Z" fill="black"/>
<path d="M145.035 149.56H140.51V154.085H145.035V149.56Z" fill="black"/>
<path d="M149.56 149.56H145.035V154.085H149.56V149.56Z" fill="black"/>
<path d="M167.66 149.56H163.135V154.085H167.66V149.56Z" fill="black"/>
<path d="M185.76 149.56H181.235V154.085H185.76V149.56Z" fill="black"/>
<path d="M22.86 154.085H18.335V158.61H22.86V154.085Z" fill="black"/>
<path d="M27.385 154.085H22.86V158.61H27.385V154.085Z" fill="black"/>
<path d="M31.91 154.085H27.385V158.61H31.91V154.085Z" fill="black"/>
<path d="M36.435 154.085H31.91V158.61H36.435V154.085Z" fill="black"/>
<path d="M40.96 154.085H36.435V158.61H40.96V154.085Z" fill="black"/>
<path d="M45.485 154.085H40.96V158.61H45.485V154.085Z" fill="black"/>
<path d="M50.01 154.085H45.485V158.61H50.01V154.085Z" fill="black"/>
<path d="M59.06 154.085H54.535V158.61H59.06V154.085Z" fill="black"/>
<path d="M72.635 154.085H68.11V158.61H72.635V154.085Z" fill="black"/>
<path d="M77.16 154.085H72.635V158.61H77.16V154.085Z" fill="black"/>
<path d="M86.21 154.085H81.685V158.61H86.21V154.085Z" fill="black"/>
<path d="M95.26 154.085H90.735V158.61H95.26V154.085Z" fill="black"/>
<path d="M104.31 154.085H99.785V158.61H104.31V154.085Z" fill="black"/>
<path d="M113.36 154.085H108.835V158.61H113.36V154.085Z" fill="black"/>
<path d="M122.41 154.085H117.885V158.61H122.41V154.085Z" fill="black"/>
<path d="M145.035 154.085H140.51V158.61H145.035V154.085Z" fill="black"/>
<path d="M149.56 154.085H145.035V158.61H149.56V154.085Z" fill="black"/>
<path d="M158.61 154.085H154.085V158.61H158.61V154.085Z" fill="black"/>
<path d="M167.66 154.085H163.135V158.61H167.66V154.085Z" fill="black"/>
<path d="M176.71 154.085H172.185V158.61H176.71V154.085Z" fill="black"/>
<path d="M181.235 154.085H176.71V158.61H181.235V154.085Z" fill="black"/>
<path d="M185.76 154.085H181.235V158.61H185.76V154.085Z" fill="black"/>
<path d="M22.86 158.61H18.335V163.135H22.86V158.61Z" fill="black"/>
<path d="M50.01 158.61H45.485V163.135H50.01V158.61Z" fill="black"/>
<path d="M68.11 158.61H63.585V163.135H68.11V158.61Z" fill="black"/>
<path d="M77.16 158.61H72.635V163.135H77.16V158.61Z" fill="black"/>
<path d="M86.21 158.61H81.685V163.135H86.21V158.61Z" fill="black"/>
<path d="M99.785 158.61H95.26V163.135H99.785V158.61Z" fill="black"/>
<path d="M108.835 158.61H104.31V163.135H108.835V158.61Z" fill="black"/>
<path d="M113.36 158.61H108.835V163.135H113.36V158.61Z" fill="black"/>
<path d="M117.885 158.61H113.36V163.135H117.885V158.61Z" fill="black"/>
<path d="M122.41 158.61H117.885V163.135H122.41V158.61Z" fill="black"/>
<path d="M131.46 158.61H126.935V163.135H131.46V158.61Z" fill="black"/>
<path d="M149.56 158.61H145.035V163.135H149.56V158.61Z" fill="black"/>
<path d="M167.66 158.61H163.135V163.135H167.66V158.61Z" fill="black"/>
<path d="M172.185 158.61H167.66V163.135H172.185V158.61Z" fill="black"/>
<path d="M176.71 158.61H172.185V163.135H176.71V158.61Z" fill="black"/>
<path d="M181.235 158.61H176.71V163.135H181.235V158.61Z" fill="black"/>
<path d="M185.76 158.61H181.235V163.135H185.76V158.61Z" fill="black"/>
<path d="M22.86 163.135H18.335V167.66H22.86V163.135Z" fill="black"/>
<path d="M31.91 163.135H27.385V167.66H31.91V163.135Z" fill="black"/>
<path d="M36.435 163.135H31.91V167.66H36.435V163.135Z" fill="black"/>
<path d="M40.96 163.135H36.435V167.66H40.96V163.135Z" fill="black"/>
<path d="M50.01 163.135H45.485V167.66H50.01V163.135Z" fill="black"/>
<path d="M90.735 163.135H86.21V167.66H90.735V163.135Z" fill="black"/>
<path d="M95.26 163.135H90.735V167.66H95.26V163.135Z" fill="black"/>
<path d="M117.885 163.135H113.36V167.66H117.885V163.135Z" fill="black"/>
<path d="M126.935 163.135H122.41V167.66H126.935V163.135Z" fill="black"/>
<path d="M131.46 163.135H126.935V167.66H131.46V163.135Z" fill="black"/>
<path d="M135.985 163.135H131.46V167.66H135.985V163.135Z" fill="black"/>
<path d="M140.51 163.135H135.985V167.66H140.51V163.135Z" fill="black"/>
<path d="M149.56 163.135H145.035V167.66H149.56V163.135Z" fill="black"/>
<path d="M154.085 163.135H149.56V167.66H154.085V163.135Z" fill="black"/>
<path d="M158.61 163.135H154.085V167.66H158.61V163.135Z" fill="black"/>
<path d="M163.135 163.135H158.61V167.66H163.135V163.135Z" fill="black"/>
<path d="M167.66 163.135H163.135V167.66H167.66V163.135Z" fill="black"/>
<path d="M185.76 163.135H181.235V167.66H185.76V163.135Z" fill="black"/>
<path d="M22.86 167.66H18.335V172.185H22.86V167.66Z" fill="black"/>
<path d="M31.91 167.66H27.385V172.185H31.91V167.66Z" fill="black"/>
<path d="M36.435 167.66H31.91V172.185H36.435V167.66Z" fill="black"/>
<path d="M40.96 167.66H36.435V172.185H40.96V167.66Z" fill="black"/>
<path d="M50.01 167.66H45.485V172.185H50.01V167.66Z" fill="black"/>
<path d="M59.06 167.66H54.535V172.185H59.06V167.66Z" fill="black"/>
<path d="M72.635 167.66H68.11V172.185H72.635V167.66Z" fill="black"/>
<path d="M86.21 167.66H81.685V172.185H86.21V167.66Z" fill="black"/>
<path d="M95.26 167.66H90.735V172.185H95.26V167.66Z" fill="black"/>
<path d="M99.785 167.66H95.26V172.185H99.785V167.66Z" fill="black"/>
<path d="M113.36 167.66H108.835V172.185H113.36V167.66Z" fill="black"/>
<path d="M117.885 167.66H113.36V172.185H117.885V167.66Z" fill="black"/>
<path d="M122.41 167.66H117.885V172.185H122.41V167.66Z" fill="black"/>
<path d="M131.46 167.66H126.935V172.185H131.46V167.66Z" fill="black"/>
<path d="M145.035 167.66H140.51V172.185H145.035V167.66Z" fill="black"/>
<path d="M154.085 167.66H149.56V172.185H154.085V167.66Z" fill="black"/>
<path d="M167.66 167.66H163.135V172.185H167.66V167.66Z" fill="black"/>
<path d="M172.185 167.66H167.66V172.185H172.185V167.66Z" fill="black"/>
<path d="M22.86 172.185H18.335V176.71H22.86V172.185Z" fill="black"/>
<path d="M31.91 172.185H27.385V176.71H31.91V172.185Z" fill="black"/>
<path d="M36.435 172.185H31.91V176.71H36.435V172.185Z" fill="black"/>
<path d="M40.96 172.185H36.435V176.71H40.96V172.185Z" fill="black"/>
<path d="M50.01 172.185H45.485V176.71H50.01V172.185Z" fill="black"/>
<path d="M68.11 172.185H63.585V176.71H68.11V172.185Z" fill="black"/>
<path d="M95.26 172.185H90.735V176.71H95.26V172.185Z" fill="black"/>
<path d="M99.785 172.185H95.26V176.71H99.785V172.185Z" fill="black"/>
<path d="M108.835 172.185H104.31V176.71H108.835V172.185Z" fill="black"/>
<path d="M113.36 172.185H108.835V176.71H113.36V172.185Z" fill="black"/>
<path d="M122.41 172.185H117.885V176.71H122.41V172.185Z" fill="black"/>
<path d="M131.46 172.185H126.935V176.71H131.46V172.185Z" fill="black"/>
<path d="M135.985 172.185H131.46V176.71H135.985V172.185Z" fill="black"/>
<path d="M140.51 172.185H135.985V176.71H140.51V172.185Z" fill="black"/>
<path d="M145.035 172.185H140.51V176.71H145.035V172.185Z" fill="black"/>
<path d="M167.66 172.185H163.135V176.71H167.66V172.185Z" fill="black"/>
<path d="M181.235 172.185H176.71V176.71H181.235V172.185Z" fill="black"/>
<path d="M185.76 172.185H181.235V176.71H185.76V172.185Z" fill="black"/>
<path d="M22.86 176.71H18.335V181.235H22.86V176.71Z" fill="black"/>
<path d="M50.01 176.71H45.485V181.235H50.01V176.71Z" fill="black"/>
<path d="M59.06 176.71H54.535V181.235H59.06V176.71Z" fill="black"/>
<path d="M63.585 176.71H59.06V181.235H63.585V176.71Z" fill="black"/>
<path d="M86.21 176.71H81.685V181.235H86.21V176.71Z" fill="black"/>
<path d="M90.735 176.71H86.21V181.235H90.735V176.71Z" fill="black"/>
<path d="M95.26 176.71H90.735V181.235H95.26V176.71Z" fill="black"/>
<path d="M104.31 176.71H99.785V181.235H104.31V176.71Z" fill="black"/>
<path d="M108.835 176.71H104.31V181.235H108.835V176.71Z" fill="black"/>
<path d="M113.36 176.71H108.835V181.235H113.36V176.71Z" fill="black"/>
<path d="M117.885 176.71H113.36V181.235H117.885V176.71Z" fill="black"/>
<path d="M126.935 176.71H122.41V181.235H126.935V176.71Z" fill="black"/>
<path d="M131.46 176.71H126.935V181.235H131.46V176.71Z" fill="black"/>
<path d="M135.985 176.71H131.46V181.235H135.985V176.71Z" fill="black"/>
<path d="M145.035 176.71H140.51V181.235H145.035V176.71Z" fill="black"/>
<path d="M149.56 176.71H145.035V181.235H149.56V176.71Z" fill="black"/>
<path d="M167.66 176.71H163.135V181.235H167.66V176.71Z" fill="black"/>
<path d="M22.86 181.235H18.335V185.76H22.86V181.235Z" fill="black"/>
<path d="M27.385 181.235H22.86V185.76H27.385V181.235Z" fill="black"/>
<path d="M31.91 181.235H27.385V185.76H31.91V181.235Z" fill="black"/>
<path d="M36.435 181.235H31.91V185.76H36.435V181.235Z" fill="black"/>
<path d="M40.96 181.235H36.435V185.76H40.96V181.235Z" fill="black"/>
<path d="M45.485 181.235H40.96V185.76H45.485V181.235Z" fill="black"/>
<path d="M50.01 181.235H45.485V185.76H50.01V181.235Z" fill="black"/>
<path d="M59.06 181.235H54.535V185.76H59.06V181.235Z" fill="black"/>
<path d="M63.585 181.235H59.06V185.76H63.585V181.235Z" fill="black"/>
<path d="M77.16 181.235H72.635V185.76H77.16V181.235Z" fill="black"/>
<path d="M95.26 181.235H90.735V185.76H95.26V181.235Z" fill="black"/>
<path d="M99.785 181.235H95.26V185.76H99.785V181.235Z" fill="black"/>
<path d="M113.36 181.235H108.835V185.76H113.36V181.235Z" fill="black"/>
<path d="M117.885 181.235H113.36V185.76H117.885V181.235Z" fill="black"/>
<path d="M122.41 181.235H117.885V185.76H122.41V181.235Z" fill="black"/>
<path d="M126.935 181.235H122.41V185.76H126.935V181.235Z" fill="black"/>
<path d="M131.46 181.235H126.935V185.76H131.46V181.235Z" fill="black"/>
<path d="M135.985 181.235H131.46V185.76H135.985V181.235Z" fill="black"/>
<path d="M145.035 181.235H140.51V185.76H145.035V181.235Z" fill="black"/>
<path d="M149.56 181.235H145.035V185.76H149.56V181.235Z" fill="black"/>
<path d="M158.61 181.235H154.085V185.76H158.61V181.235Z" fill="black"/>
<path d="M181.235 181.235H176.71V185.76H181.235V181.235Z" fill="black"/>
<path d="M185.76 181.235H181.235V185.76H185.76V181.235Z" fill="black"/>
</svg>
