<svg width="37" height="37" viewBox="0 0 37 37" fill="none" xmlns="http://www.w3.org/2000/svg">
<path fill-rule="evenodd" clip-rule="evenodd" d="M18.5 37C28.7173 37 37 28.7173 37 18.5C37 8.28273 28.7173 0 18.5 0C8.28273 0 0 8.28273 0 18.5C0 28.7173 8.28273 37 18.5 37ZM23.4192 28.449H13.2955C12.7152 28.4484 12.1494 28.2679 11.6759 27.9323C11.2025 27.5967 10.8447 27.1225 10.652 26.5751C10.4593 26.0278 10.441 25.4341 10.5998 24.8759C10.7585 24.3177 11.0864 23.8225 11.5384 23.4584L24.086 13.3725C24.365 13.1571 24.5691 12.8592 24.6692 12.5212C24.7693 12.1832 24.7604 11.8222 24.6438 11.4895C24.5289 11.158 24.3129 10.8709 24.0263 10.6685C23.7397 10.4662 23.3968 10.3588 23.0459 10.3614H13.1697C12.6136 10.3614 12.0803 10.5824 11.687 10.9756C11.2938 11.3688 11.0729 11.9022 11.0729 12.4583C11.0729 13.0144 11.2938 13.5478 11.687 13.941C12.0803 14.3342 12.6136 14.5552 13.1697 14.5552H13.4843C13.6233 14.5672 13.7528 14.631 13.8471 14.7339C13.9414 14.8368 13.9937 14.9713 13.9937 15.1108C13.9937 15.2504 13.9414 15.3849 13.8471 15.4878C13.7528 15.5906 13.6233 15.6544 13.4843 15.6665H13.1697C12.3189 15.6665 11.5029 15.3285 10.9012 14.7268C10.2995 14.1252 9.96154 13.3092 9.96154 12.4583C9.96154 11.6074 10.2995 10.7914 10.9012 10.1898C11.5029 9.58811 12.3189 9.2501 13.1697 9.2501H23.025C23.607 9.24518 24.1759 9.42359 24.6508 9.76006C25.1258 10.0965 25.4828 10.574 25.6712 11.1247C25.8673 11.6718 25.887 12.2667 25.7275 12.8256C25.568 13.3845 25.2374 13.8793 24.7822 14.2406L12.2345 24.3475C11.9524 24.5625 11.7457 24.8615 11.6441 25.2014C11.5425 25.5413 11.5513 25.9046 11.6692 26.2392C11.7871 26.5738 12.008 26.8624 12.3003 27.0635C12.5925 27.2646 12.9409 27.3679 13.2955 27.3586H23.4192C23.9753 27.3586 24.5087 27.1377 24.9019 26.7444C25.2951 26.3512 25.5161 25.8179 25.5161 25.2617C25.5161 24.7056 25.2951 24.1723 24.9019 23.779C24.5087 23.3858 23.9753 23.1649 23.4192 23.1649H22.8279C22.6888 23.1528 22.5594 23.089 22.4651 22.9861C22.3708 22.8833 22.3184 22.7488 22.3184 22.6092C22.3184 22.4696 22.3708 22.3351 22.4651 22.2323C22.5594 22.1294 22.6888 22.0656 22.8279 22.0535H23.4192C24.2689 22.0535 25.0839 22.3911 25.6848 22.992C26.2856 23.5928 26.6232 24.4078 26.6232 25.2575C26.6232 26.1073 26.2856 26.9222 25.6848 27.5231C25.0839 28.124 24.2689 28.4615 23.4192 28.4615V28.449ZM11.5174 20.7954C11.4363 20.7939 11.3566 20.7742 11.284 20.738C11.2115 20.7017 11.1479 20.6497 11.098 20.5857C11.0524 20.5288 11.0185 20.4634 10.9982 20.3934C10.9779 20.3233 10.9717 20.2499 10.9799 20.1774C10.9881 20.1049 11.0105 20.0348 11.0459 19.971C11.0813 19.9072 11.1289 19.851 11.1861 19.8057L19.7203 13.0245H14.9982C14.9242 13.0239 14.8511 13.0087 14.7831 12.9796C14.7151 12.9505 14.6535 12.9082 14.602 12.8552C14.5505 12.8021 14.51 12.7393 14.483 12.6704C14.456 12.6016 14.443 12.5281 14.4446 12.4541C14.4499 12.3094 14.51 12.172 14.6128 12.07C14.7156 11.968 14.8534 11.9089 14.9982 11.9047H19.7371C19.9544 11.9025 20.1677 11.9636 20.3508 12.0805C20.534 12.1974 20.6792 12.3651 20.7688 12.5631C20.8692 12.7842 20.8924 13.0326 20.8346 13.2684C20.7768 13.5042 20.6413 13.7137 20.45 13.8632L11.8655 20.6738C11.766 20.7515 11.6436 20.7942 11.5174 20.7954ZM16.5079 25.7776H21.2888C21.3658 25.7843 21.4434 25.7749 21.5166 25.75C21.5898 25.7251 21.657 25.6853 21.714 25.633C21.771 25.5808 21.8165 25.5172 21.8477 25.4465C21.8788 25.3757 21.8949 25.2992 21.8949 25.2219C21.8949 25.1446 21.8788 25.0681 21.8477 24.9973C21.8165 24.9265 21.771 24.863 21.714 24.8108C21.657 24.7585 21.5898 24.7187 21.5166 24.6938C21.4434 24.6689 21.3658 24.6595 21.2888 24.6662H16.5457L25.0967 17.8766C25.1537 17.8314 25.2012 17.7755 25.2366 17.712C25.272 17.6484 25.2945 17.5785 25.3029 17.5063C25.3113 17.4341 25.3053 17.3609 25.2854 17.2909C25.2655 17.221 25.232 17.1557 25.1869 17.0987C25.1417 17.0417 25.0857 16.9941 25.0222 16.9587C24.9587 16.9233 24.8888 16.9008 24.8166 16.8925C24.7443 16.8841 24.6711 16.89 24.6012 16.9099C24.5313 16.9298 24.4659 16.9633 24.4089 17.0085L15.8369 23.8191C15.6595 23.9603 15.53 24.153 15.4664 24.3707C15.4028 24.5884 15.4081 24.8204 15.4816 25.035C15.5551 25.2496 15.6933 25.4361 15.877 25.5691C16.0608 25.702 16.2812 25.7749 16.5079 25.7776Z" fill="#26B8FE"/>
</svg>
